# This file uses centimeters as units for non-parametric coordinates.

v -0.732800 -0.503549 0.736008
v 0.618423 -0.503549 0.663153
v -0.675420 0.256095 0.674756
v 0.561042 0.256095 0.601901
v -0.534872 0.256095 -0.544041
v 0.555684 0.256095 -0.500230
v -0.592252 -0.503549 -0.605293
v 0.613065 -0.503549 -0.561482
v 0.600113 -0.182398 0.643608
v -0.714490 -0.182398 0.716463
v -0.573943 -0.182398 -0.585748
v 0.594755 -0.182398 -0.541937
v 0.587172 -0.145199 0.629794
v -0.701549 -0.145199 0.702649
v -0.561002 -0.145199 -0.571934
v 0.581814 -0.145199 -0.528123
v 0.595338 0.230674 0.638511
v -0.709716 0.230674 0.711366
v -0.569168 0.230674 -0.580651
v 0.589981 0.230674 -0.536840
v -0.556306 -0.503549 0.603892
v 0.538515 -0.503549 0.603892
v -0.508895 0.496451 0.556482
v 0.491105 0.496451 0.556482
v -0.508895 0.496451 -0.443518
v 0.460843 0.496451 -0.392681
v -0.556306 -0.503549 -0.490929
v 0.508253 -0.503549 -0.440091
v 0.523387 -0.182398 0.588764
v -0.541177 -0.182398 0.588764
v -0.541177 -0.182398 -0.475800
v 0.493124 -0.182398 -0.424963
v 0.512694 -0.145199 0.578071
v -0.530485 -0.145199 0.578071
v -0.530485 -0.145199 -0.465108
v 0.482432 -0.145199 -0.414271
v 0.519442 0.230674 0.584819
v -0.537232 0.230674 0.584819
v -0.537232 0.230674 -0.471855
v 0.489180 0.230674 -0.421018
v -0.465999 0.503549 0.513585
v 0.448208 0.503549 0.513585
v 0.417946 0.503549 -0.349784
v -0.465999 0.503549 -0.400622
vt 0.375000 0.000000
vt 0.625000 0.000000
vt 0.376942 0.249517
vt 0.625846 0.247551
vt 0.372420 0.505981
vt 0.628916 0.506527
vt 0.375000 0.750000
vt 0.625000 0.750000
vt 0.375000 1.000000
vt 0.625000 1.000000
vt 0.875000 0.000000
vt 0.871452 0.248699
vt 0.125000 0.000000
vt 0.129029 0.248580
vt 0.625000 0.122346
vt 0.375000 0.122346
vt 0.125000 0.122346
vt 0.375000 0.627654
vt 0.625000 0.627654
vt 0.875000 0.122346
vt 0.625000 0.132164
vt 0.375000 0.132164
vt 0.125000 0.132164
vt 0.375000 0.617836
vt 0.625000 0.617836
vt 0.875000 0.132164
vt 0.625000 0.209697
vt 0.375000 0.209697
vt 0.125000 0.209697
vt 0.375000 0.540303
vt 0.625000 0.540303
vt 0.875000 0.209697
vt 0.375000 0.000000
vt 0.625000 0.000000
vt 0.625000 0.122346
vt 0.375000 0.122346
vt 0.375000 0.250000
vt 0.625000 0.250000
vt 0.625000 0.500000
vt 0.375000 0.500000
vt 0.375000 0.627654
vt 0.625000 0.627654
vt 0.625000 0.750000
vt 0.375000 0.750000
vt 0.625000 1.000000
vt 0.375000 1.000000
vt 0.875000 0.000000
vt 0.875000 0.122346
vt 0.125000 0.000000
vt 0.125000 0.122346
vt 0.625000 0.132164
vt 0.375000 0.132164
vt 0.125000 0.132164
vt 0.375000 0.617836
vt 0.625000 0.617836
vt 0.875000 0.132164
vt 0.625000 0.209697
vt 0.375000 0.209697
vt 0.125000 0.209697
vt 0.375000 0.540303
vt 0.625000 0.540303
vt 0.875000 0.209697
vt 0.625000 0.250000
vt 0.375000 0.250000
vt 0.125000 0.250000
vt 0.375000 0.500000
vt 0.625000 0.500000
vt 0.875000 0.250000
vn 0.054477 0.060657 0.996671
vn 0.054477 0.060657 0.996671
vn 0.054477 0.060657 0.996671
vn 0.054477 0.060657 0.996671
vn 0.000000 1.000000 0.000000
vn 0.000000 1.000000 0.000000
vn 0.000000 1.000000 0.000000
vn 0.000000 1.000000 0.000000
vn 0.036816 0.060706 -0.997477
vn 0.036816 0.060706 -0.997477
vn 0.036816 0.060706 -0.997477
vn 0.036816 0.060706 -0.997477
vn 0.000000 -1.000000 0.000000
vn 0.000000 -1.000000 0.000000
vn 0.000000 -1.000000 0.000000
vn 0.000000 -1.000000 0.000000
vn 0.998369 0.056920 -0.004439
vn 0.998369 0.056920 -0.004439
vn 0.998369 0.056920 -0.004439
vn 0.998369 0.056920 -0.004439
vn -0.992800 0.056602 -0.105568
vn -0.992800 0.056602 -0.105568
vn -0.992800 0.056602 -0.105568
vn -0.992800 0.056602 -0.105568
vn 0.052398 0.347650 0.936159
vn 0.052398 0.347650 0.936159
vn 0.052398 0.347650 0.936159
vn 0.052398 0.347650 0.936159
vn -0.939507 0.326839 -0.102488
vn -0.939507 0.326839 -0.102488
vn -0.939507 0.326839 -0.102488
vn -0.939507 0.326839 -0.102488
vn 0.035513 0.347908 -0.936856
vn 0.035513 0.347908 -0.936856
vn 0.035513 0.347908 -0.936856
vn 0.035513 0.347908 -0.936856
vn 0.944470 0.328570 -0.004319
vn 0.944470 0.328570 -0.004319
vn 0.944470 0.328570 -0.004319
vn 0.944470 0.328570 -0.004319
vn 0.056074 -0.023149 0.998158
vn 0.056074 -0.023149 0.998158
vn 0.056074 -0.023149 0.998158
vn 0.056074 -0.023149 0.998158
vn -0.993824 -0.021591 -0.108844
vn -0.993824 -0.021591 -0.108844
vn -0.993824 -0.021591 -0.108844
vn -0.993824 -0.021591 -0.108844
vn 0.038026 -0.023169 -0.999008
vn 0.038026 -0.023169 -0.999008
vn 0.038026 -0.023169 -0.999008
vn 0.038026 -0.023169 -0.999008
vn 0.999754 -0.021721 -0.004591
vn 0.999754 -0.021721 -0.004591
vn 0.999754 -0.021721 -0.004591
vn 0.999754 -0.021721 -0.004591
vn 0.032683 0.820947 0.570068
vn 0.032683 0.820947 0.570068
vn 0.032683 0.820947 0.570068
vn 0.032683 0.820947 0.570068
vn -0.594172 0.801583 -0.066520
vn -0.594172 0.801583 -0.066520
vn -0.594172 0.801583 -0.066520
vn -0.594172 0.801583 -0.066520
vn 0.022209 0.821184 -0.570231
vn 0.022209 0.821184 -0.570231
vn 0.022209 0.821184 -0.570231
vn 0.022209 0.821184 -0.570231
vn 0.595488 0.803359 -0.002802
vn 0.595488 0.803359 -0.002802
vn 0.595488 0.803359 -0.002802
vn 0.595488 0.803359 -0.002802
vn 0.000000 0.047055 0.998892
vn 0.000000 0.047055 0.998892
vn 0.000000 0.047055 0.998892
vn 0.000000 0.047055 0.998892
vn 0.000000 1.000000 0.000000
vn 0.000000 1.000000 0.000000
vn 0.000000 1.000000 0.000000
vn 0.000000 1.000000 0.000000
vn 0.048333 0.047000 -0.997725
vn 0.048333 0.047000 -0.997725
vn 0.048333 0.047000 -0.997725
vn 0.048333 0.047000 -0.997725
vn 0.000000 -1.000000 0.000000
vn 0.000000 -1.000000 0.000000
vn 0.000000 -1.000000 0.000000
vn 0.000000 -1.000000 0.000000
vn 0.998461 0.047035 -0.029368
vn 0.998461 0.047035 -0.029368
vn 0.998461 0.047035 -0.029368
vn 0.998461 0.047035 -0.029368
vn -0.998892 0.047056 0.000000
vn -0.998892 0.047056 0.000000
vn -0.998892 0.047056 0.000000
vn -0.998892 0.047056 0.000000
vn 0.000000 0.276260 0.961083
vn 0.000000 0.276260 0.961083
vn 0.000000 0.276260 0.961083
vn 0.000000 0.276260 0.961083
vn -0.961084 0.276257 0.000000
vn -0.961084 0.276257 0.000000
vn -0.961084 0.276257 0.000000
vn -0.961084 0.276257 0.000000
vn 0.047677 0.275940 -0.959992
vn 0.047677 0.275940 -0.959992
vn 0.047677 0.275940 -0.959992
vn 0.047677 0.275940 -0.959992
vn 0.960681 0.276137 -0.028984
vn 0.960681 0.276137 -0.028984
vn 0.960681 0.276137 -0.028984
vn 0.960681 0.276137 -0.028984
vn 0.000000 -0.017949 0.999839
vn 0.000000 -0.017949 0.999839
vn 0.000000 -0.017949 0.999839
vn 0.000000 -0.017949 0.999839
vn -0.999839 -0.017949 0.000000
vn -0.999839 -0.017949 0.000000
vn -0.999839 -0.017949 0.000000
vn -0.999839 -0.017949 0.000000
vn 0.049787 -0.017926 -0.998599
vn 0.049787 -0.017926 -0.998599
vn 0.049787 -0.017926 -0.998599
vn 0.049787 -0.017926 -0.998599
vn 0.999381 -0.017941 -0.030271
vn 0.999381 -0.017941 -0.030271
vn 0.999381 -0.017941 -0.030271
vn 0.999381 -0.017941 -0.030271
vn 0.000000 0.106018 0.994364
vn 0.000000 0.106018 0.994364
vn 0.000000 0.106018 0.994364
vn 0.000000 0.106018 0.994364
vn -0.994364 0.106018 0.000000
vn -0.994364 0.106018 0.000000
vn -0.994364 0.106018 0.000000
vn -0.994364 0.106018 0.000000
vn 0.050584 0.105883 -0.993091
vn 0.050584 0.105883 -0.993091
vn 0.050584 0.105883 -0.993091
vn 0.050584 0.105883 -0.993091
vn 0.993893 0.105968 -0.030770
vn 0.993893 0.105968 -0.030770
vn 0.993893 0.105968 -0.030770
vn 0.993893 0.105968 -0.030770
vn 0.000000 0.986587 0.163235
vn 0.000000 0.986587 0.163235
vn 0.000000 0.986587 0.163235
vn 0.000000 0.986587 0.163235
vn 0.163231 0.986573 -0.005451
vn 0.163231 0.986573 -0.005451
vn 0.163231 0.986573 -0.005451
vn 0.163231 0.986573 -0.005451
vn 0.008953 0.986548 -0.163228
vn 0.008953 0.986548 -0.163228
vn 0.008953 0.986548 -0.163228
vn 0.008953 0.986548 -0.163228
vn -0.163234 0.986587 0.000000
vn -0.163234 0.986588 0.000000
vn -0.163234 0.986587 0.000000
vn -0.163234 0.986588 0.000000
f 1/1/1 2/2/2 9/15/3 10/16/4
f 3/3/5 4/4/6 6/6/7 5/5/8
f 11/18/9 12/19/10 8/8/11 7/7/12
f 7/7/13 8/8/14 2/10/15 1/9/16
f 2/2/17 8/11/18 12/20/19 9/15/20
f 7/13/21 1/1/22 10/16/23 11/17/24
f 10/16/25 9/15/26 13/21/27 14/22/28
f 11/17/29 10/16/30 14/22/31 15/23/32
f 15/24/33 16/25/34 12/19/35 11/18/36
f 9/15/37 12/20/38 16/26/39 13/21/40
f 14/22/41 13/21/42 17/27/43 18/28/44
f 15/23/45 14/22/46 18/28/47 19/29/48
f 19/30/49 20/31/50 16/25/51 15/24/52
f 13/21/53 16/26/54 20/32/55 17/27/56
f 18/28/57 17/27/58 4/4/59 3/3/60
f 19/29/61 18/28/62 3/3/63 5/14/64
f 5/5/65 6/6/66 20/31/67 19/30/68
f 17/27/69 20/32/70 6/12/71 4/4/72
f 21/33/73 22/34/74 29/35/75 30/36/76
f 41/37/77 42/38/78 43/39/79 44/40/80
f 31/41/81 32/42/82 28/43/83 27/44/84
f 27/44/85 28/43/86 22/45/87 21/46/88
f 22/34/89 28/47/90 32/48/91 29/35/92
f 27/49/93 21/33/94 30/36/95 31/50/96
f 30/36/97 29/35/98 33/51/99 34/52/100
f 31/50/101 30/36/102 34/52/103 35/53/104
f 35/54/105 36/55/106 32/42/107 31/41/108
f 29/35/109 32/48/110 36/56/111 33/51/112
f 34/52/113 33/51/114 37/57/115 38/58/116
f 35/53/117 34/52/118 38/58/119 39/59/120
f 39/60/121 40/61/122 36/55/123 35/54/124
f 33/51/125 36/56/126 40/62/127 37/57/128
f 38/58/129 37/57/130 24/63/131 23/64/132
f 39/59/133 38/58/134 23/64/135 25/65/136
f 25/66/137 26/67/138 40/61/139 39/60/140
f 37/57/141 40/62/142 26/68/143 24/63/144
f 23/64/145 24/63/146 42/38/147 41/37/148
f 24/63/149 26/67/150 43/39/151 42/38/152
f 26/67/153 25/66/154 44/40/155 43/39/156
f 25/66/157 23/64/158 41/37/159 44/40/160
