# This file uses centimeters as units for non-parametric coordinates.

v -0.528349 -0.500000 0.528349
v 0.528349 -0.500000 0.528349
v -0.520695 0.500000 0.520695
v 0.520695 0.500000 0.520695
v -0.520695 0.500000 -0.520695
v -0.513346 -0.500000 -0.528349
v -0.500000 0.084154 -0.500000
v -0.500000 0.084154 0.500000
v 0.500000 0.084154 0.500000
v -0.500000 -0.206688 -0.500000
v -0.500000 -0.206688 0.500000
v 0.500000 -0.206688 0.500000
v -0.513346 -0.293377 -0.528349
v -0.528349 -0.293377 0.528349
v 0.528349 -0.293377 0.528349
v 0.500000 0.283507 0.500000
v -0.500000 0.283507 0.500000
v -0.500000 0.283507 -0.500000
v -0.523135 0.389732 -0.523135
v -0.523135 0.389732 0.523135
v 0.523135 0.389732 0.523135
v -0.506877 0.056846 -0.506877
v -0.506877 -0.125741 -0.506877
v -0.506877 -0.125741 0.506877
v -0.506877 0.056846 0.506877
v 0.506877 -0.125741 0.506877
v 0.506877 0.056846 0.506877
v 0.520695 0.500000 -0.057037
v 0.043782 0.500000 -0.520695
v 0.045256 0.389732 -0.523135
v 0.045828 0.283507 -0.500000
v 0.048347 0.084154 -0.500000
v 0.048921 0.056846 -0.506877
v 0.051227 -0.125741 -0.506877
v 0.052020 -0.206688 -0.500000
v 0.054058 -0.293377 -0.528349
v 0.056668 -0.500000 -0.528349
v 0.519824 -0.500000 -0.072084
v 0.519868 -0.293377 -0.068974
v 0.500000 -0.206688 -0.067539
v 0.506877 -0.125741 -0.066365
v 0.506877 0.056846 -0.063617
v 0.500000 0.084154 -0.063161
v 0.500000 0.283507 -0.060160
v 0.523135 0.389732 -0.058712
vt 0.375000 0.000000
vt 0.625000 0.000000
vt 0.375000 0.250000
vt 0.625000 0.250000
vt 0.375000 0.500000
vt 0.375000 0.750000
vt 0.375000 1.000000
vt 0.625000 1.000000
vt 0.125000 0.000000
vt 0.125000 0.250000
vt 0.125000 0.146039
vt 0.375000 0.603961
vt 0.375000 0.146039
vt 0.625000 0.146039
vt 0.125000 0.061630
vt 0.375000 0.688370
vt 0.375000 0.061630
vt 0.625000 0.061630
vt 0.125000 0.051656
vt 0.375000 0.698344
vt 0.375000 0.051656
vt 0.625000 0.051656
vt 0.625000 0.213651
vt 0.375000 0.213651
vt 0.125000 0.213651
vt 0.375000 0.536349
vt 0.125000 0.222433
vt 0.375000 0.527567
vt 0.375000 0.222433
vt 0.625000 0.222433
vt 0.375000 0.603961
vt 0.375000 0.688370
vt 0.125000 0.061630
vt 0.375000 0.061630
vt 0.375000 0.146039
vt 0.125000 0.146039
vt 0.625000 0.061630
vt 0.625000 0.146039
vt 0.625000 0.388692
vt 0.763692 0.250000
vt 0.510511 0.500000
vt 0.510814 0.527567
vt 0.511457 0.536349
vt 0.512087 0.603961
vt 0.512064 0.603961
vt 0.512633 0.688370
vt 0.513005 0.688370
vt 0.513163 0.698344
vt 0.513799 0.750000
vt 0.625000 0.857946
vt 0.767054 0.000000
vt 0.766318 0.051656
vt 0.766885 0.061630
vt 0.766366 0.061630
vt 0.765689 0.146039
vt 0.765790 0.146039
vt 0.765040 0.213651
vt 0.764029 0.222433
vn 0.000000 0.000000 1.000000
vn 0.000000 0.000000 1.000000
vn 0.000000 0.000000 1.000000
vn 0.000000 0.000000 1.000000
vn 0.000000 1.000000 0.000000
vn 0.000000 1.000000 0.000000
vn 0.000000 1.000000 0.000000
vn 0.000000 1.000000 0.000000
vn 0.000000 1.000000 0.000000
vn 0.000000 0.000000 -1.000000
vn 0.000000 0.000000 -1.000000
vn 0.000000 0.000000 -1.000000
vn 0.000000 0.000000 -1.000000
vn 0.000000 -1.000000 0.000000
vn 0.000000 -1.000000 0.000000
vn 0.000000 -1.000000 0.000000
vn 0.000000 -1.000000 0.000000
vn 0.000000 -1.000000 0.000000
vn 1.000000 0.000000 0.000000
vn 1.000000 0.000000 0.000000
vn 1.000000 0.000000 0.000000
vn 1.000000 0.000000 0.000000
vn -1.000000 0.000000 0.000000
vn -1.000000 0.000000 0.000000
vn -1.000000 0.000000 0.000000
vn -1.000000 0.000000 0.000000
vn 0.000000 -0.000000 -1.000000
vn 0.000000 -0.000000 -1.000000
vn 0.000000 -0.000000 -1.000000
vn 0.000000 -0.000000 -1.000000
vn -1.000000 0.000000 0.000000
vn -1.000000 0.000000 0.000000
vn -1.000000 0.000000 0.000000
vn -1.000000 0.000000 0.000000
vn 0.000000 0.000000 1.000000
vn 0.000000 0.000000 1.000000
vn 0.000000 0.000000 1.000000
vn 0.000000 0.000000 1.000000
vn 1.000000 -0.000000 0.000000
vn 1.000000 -0.000000 0.000000
vn 1.000000 -0.000000 0.000000
vn 1.000000 -0.000000 0.000000
vn 0.000000 0.310816 -0.950470
vn 0.000000 0.310816 -0.950470
vn 0.000000 0.310816 -0.950470
vn 0.000000 0.310816 -0.950470
vn -0.972257 0.233809 -0.007092
vn -0.972257 0.233809 -0.007092
vn -0.972257 0.233809 -0.007092
vn -0.972257 0.233809 -0.007092
vn 0.000000 0.310816 0.950470
vn 0.000000 0.310816 0.950470
vn 0.000000 0.310816 0.950470
vn 0.000000 0.310816 0.950470
vn 0.963695 0.266914 -0.007016
vn 0.963695 0.266914 -0.007016
vn 0.963695 0.266914 -0.007016
vn 0.963695 0.266914 -0.007016
vn 0.000000 0.000000 -1.000000
vn 0.000000 0.000000 -1.000000
vn 0.000000 0.000000 -1.000000
vn 0.000000 0.000000 -1.000000
vn -0.999899 0.000000 -0.014196
vn -0.999899 0.000000 -0.014196
vn -0.999899 0.000000 -0.014196
vn -0.999899 0.000000 -0.014196
vn 0.000000 0.000000 1.000000
vn 0.000000 0.000000 1.000000
vn 0.000000 0.000000 1.000000
vn 0.000000 0.000000 1.000000
vn 0.999899 0.000000 -0.014196
vn 0.999899 0.000000 -0.014196
vn 0.999899 0.000000 -0.014196
vn 0.999899 0.000000 -0.014196
vn 0.000000 0.022122 0.999755
vn 0.000000 0.022122 0.999755
vn 0.000000 0.022122 0.999755
vn 0.000000 0.022122 0.999755
vn -0.999755 0.022123 0.000000
vn -0.999755 0.022123 0.000000
vn -0.999755 0.022123 0.000000
vn -0.999755 0.022123 0.000000
vn 0.000000 0.022122 -0.999755
vn 0.000000 0.022122 -0.999755
vn 0.000000 0.022122 -0.999755
vn 0.000000 0.022122 -0.999755
vn 0.999755 0.022122 0.000000
vn 0.999755 0.022122 0.000000
vn 0.999755 0.022122 0.000000
vn 0.999755 0.022122 0.000000
vn 0.000000 -0.212801 -0.977096
vn 0.000000 -0.212801 -0.977096
vn 0.000000 -0.212801 -0.977096
vn 0.000000 -0.212801 -0.977096
vn -0.977096 -0.212801 0.000000
vn -0.977096 -0.212801 0.000000
vn -0.977096 -0.212801 0.000000
vn -0.977096 -0.212801 0.000000
vn 0.000000 -0.212801 0.977096
vn 0.000000 -0.212801 0.977096
vn 0.000000 -0.212801 0.977096
vn 0.000000 -0.212801 0.977096
vn 0.977096 -0.212800 0.000000
vn 0.977096 -0.212800 0.000000
vn 0.977096 -0.212800 0.000000
vn 0.977096 -0.212800 0.000000
vn 0.000000 0.244203 -0.969724
vn 0.000000 0.244203 -0.969724
vn 0.000000 0.244203 -0.969724
vn 0.000000 0.244203 -0.969724
vn 0.000000 -0.084652 -0.996411
vn 0.000000 -0.084652 -0.996411
vn 0.000000 -0.084652 -0.996411
vn 0.000000 -0.084652 -0.996411
vn -0.996411 -0.084653 0.000000
vn -0.996411 -0.084653 0.000000
vn -0.996411 -0.084653 0.000000
vn -0.996411 -0.084653 0.000000
vn -0.969724 0.244203 0.000000
vn -0.969724 0.244203 0.000000
vn -0.969724 0.244203 0.000000
vn -0.969724 0.244203 0.000000
vn 0.000000 -0.084652 0.996411
vn 0.000000 -0.084652 0.996411
vn 0.000000 -0.084652 0.996411
vn 0.000000 -0.084652 0.996411
vn 0.000000 0.244203 0.969724
vn 0.000000 0.244203 0.969724
vn 0.000000 0.244203 0.969724
vn 0.000000 0.244203 0.969724
vn 0.996411 -0.084652 0.000000
vn 0.996411 -0.084652 0.000000
vn 0.996411 -0.084652 0.000000
vn 0.996411 -0.084652 0.000000
vn 0.969724 0.244205 0.000000
vn 0.969724 0.244205 0.000000
vn 0.969724 0.244205 0.000000
vn 0.969724 0.244205 0.000000
vn 0.696774 0.025744 -0.716828
vn 0.696774 0.025744 -0.716828
vn 0.696774 0.025744 -0.716828
vn 0.696774 0.025744 -0.716828
vn 0.688902 -0.145649 -0.710071
vn 0.688902 -0.145649 -0.710071
vn 0.688902 -0.145649 -0.710071
vn 0.688902 -0.145649 -0.710071
vn 0.695418 0.009802 -0.718538
vn 0.695418 0.009802 -0.718538
vn 0.695418 0.009802 -0.718538
vn 0.695418 0.009802 -0.718538
vn 0.682962 0.187940 -0.705862
vn 0.682962 0.187940 -0.705862
vn 0.682962 0.187940 -0.705862
vn 0.682962 0.187940 -0.705862
vn 0.695240 0.009800 -0.718711
vn 0.695240 0.009800 -0.718711
vn 0.695240 0.009800 -0.718711
vn 0.695240 0.009800 -0.718711
vn 0.693884 -0.051380 -0.718252
vn 0.693884 -0.051380 -0.718252
vn 0.693884 -0.051380 -0.718252
vn 0.693884 -0.051380 -0.718252
vn 0.683385 0.206628 -0.700207
vn 0.683385 0.206628 -0.700207
vn 0.683385 0.206628 -0.700207
vn 0.683385 0.206628 -0.700207
vn 0.701947 0.009718 -0.712163
vn 0.701947 0.009718 -0.712163
vn 0.701947 0.009718 -0.712163
vn 0.701947 0.009718 -0.712163
f 8/13/1 9/14/2 16/23/3 17/24/4
f 3/3/5 4/4/6 28/39/7 29/41/8 5/5/9
f 18/26/10 31/43/11 32/44/12 7/12/13
f 6/6/14 37/49/15 38/50/16 2/8/17 1/7/18
f 9/14/19 43/56/20 44/57/21 16/23/22
f 7/11/23 8/13/24 17/24/25 18/25/26
f 22/31/27 33/45/28 34/46/29 23/32/30
f 23/33/31 24/34/32 25/35/33 22/36/34
f 24/34/35 26/37/36 27/38/37 25/35/38
f 26/37/39 41/54/40 42/55/41 27/38/42
f 10/16/43 35/47/44 36/48/45 13/20/46
f 13/19/47 14/21/48 11/17/49 10/15/50
f 14/21/51 15/22/52 12/18/53 11/17/54
f 15/22/55 39/52/56 40/53/57 12/18/58
f 13/20/59 36/48/60 37/49/61 6/6/62
f 6/9/63 1/1/64 14/21/65 13/19/66
f 1/1/67 2/2/68 15/22/69 14/21/70
f 2/2/71 38/51/72 39/52/73 15/22/74
f 20/29/75 21/30/76 4/4/77 3/3/78
f 19/27/79 20/29/80 3/3/81 5/10/82
f 5/5/83 29/41/84 30/42/85 19/28/86
f 21/30/87 45/58/88 28/40/89 4/4/90
f 19/28/91 30/42/92 31/43/93 18/26/94
f 18/25/95 17/24/96 20/29/97 19/27/98
f 17/24/99 16/23/100 21/30/101 20/29/102
f 16/23/103 44/57/104 45/58/105 21/30/106
f 7/12/107 32/44/108 33/45/109 22/31/110
f 34/46/111 35/47/112 10/16/113 23/32/114
f 10/15/115 11/17/116 24/34/117 23/33/118
f 8/13/119 7/11/120 22/36/121 25/35/122
f 11/17/123 12/18/124 26/37/125 24/34/126
f 9/14/127 8/13/128 25/35/129 27/38/130
f 12/18/131 40/53/132 41/54/133 26/37/134
f 42/55/135 43/56/136 9/14/137 27/38/138
f 29/41/139 28/40/140 45/58/141 30/42/142
f 30/42/143 45/58/144 44/57/145 31/43/146
f 31/43/147 44/57/148 43/56/149 32/44/150
f 32/44/151 43/56/152 42/55/153 33/45/154
f 33/45/155 42/55/156 41/54/157 34/46/158
f 34/46/159 41/54/160 40/53/161 35/47/162
f 35/47/163 40/53/164 39/52/165 36/48/166
f 36/48/167 39/52/168 38/50/169 37/49/170
