# This file uses centimeters as units for non-parametric coordinates.

v 0.009753 0.429663 0.385976
v 0.284428 0.429663 0.385976
v 0.023735 0.585887 0.361244
v 0.270369 0.585887 0.361244
v 0.023735 0.585887 -0.011325
v 0.270369 0.585887 -0.011325
v 0.009753 0.429663 -0.031142
v 0.284428 0.429663 -0.031142
vt 0.375000 0.000000
vt 0.625000 0.000000
vt 0.625000 0.250000
vt 0.375000 0.250000
vt 0.625000 0.500000
vt 0.375000 0.500000
vt 0.625000 0.750000
vt 0.375000 0.750000
vt 0.625000 1.000000
vt 0.375000 1.000000
vt 0.875000 0.000000
vt 0.875000 0.250000
vt 0.125000 0.000000
vt 0.125000 0.250000
vn 0.000000 0.156364 0.987700
vn 0.000000 0.156364 0.987700
vn 0.000000 0.156364 0.987700
vn 0.000000 0.156364 0.987700
vn 0.000000 1.000000 0.000000
vn 0.000000 1.000000 0.000000
vn 0.000000 1.000000 0.000000
vn 0.000000 1.000000 0.000000
vn 0.000000 0.125841 -0.992050
vn 0.000000 0.125841 -0.992050
vn 0.000000 0.125841 -0.992050
vn 0.000000 0.125841 -0.992050
vn 0.000000 -1.000000 0.000000
vn 0.000000 -1.000000 0.000000
vn 0.000000 -1.000000 0.000000
vn 0.000000 -1.000000 0.000000
vn 0.995975 0.089628 0.000000
vn 0.995975 0.089628 0.000000
vn 0.995975 0.089628 0.000000
vn 0.995975 0.089628 0.000000
vn -0.996019 0.089141 0.000000
vn -0.996019 0.089141 0.000000
vn -0.996019 0.089141 0.000000
vn -0.996019 0.089141 0.000000
f 1/1/1 2/2/2 4/3/3 3/4/4
f 3/4/5 4/3/6 6/5/7 5/6/8
f 5/6/9 6/5/10 8/7/11 7/8/12
f 7/8/13 8/7/14 2/9/15 1/10/16
f 2/2/17 8/11/18 6/12/19 4/3/20
f 7/13/21 1/1/22 3/4/23 5/14/24
v -0.547410 -0.500000 0.547410
v 0.547410 -0.500000 0.547410
v -0.500000 0.500000 0.500000
v 0.500000 0.500000 0.500000
v -0.500000 0.500000 -0.500000
v 0.500000 0.500000 -0.500000
v -0.547410 -0.500000 -0.547410
v 0.547410 -0.500000 -0.547410
v 0.532282 -0.178849 0.532282
v -0.532282 -0.178849 0.532282
v -0.532282 -0.178849 -0.532282
v 0.532282 -0.178849 -0.532282
v 0.521589 -0.141651 0.521589
v -0.521589 -0.141651 0.521589
v -0.521589 -0.141651 -0.521589
v 0.521589 -0.141651 -0.521589
v 0.528337 0.234222 0.528337
v -0.528337 0.234222 0.528337
v -0.528337 0.234222 -0.528337
v 0.528337 0.234222 -0.528337
vt 0.375000 0.000000
vt 0.625000 0.000000
vt 0.625000 0.122346
vt 0.375000 0.122346
vt 0.376754 0.252428
vt 0.622820 0.252004
vt 0.627448 0.504103
vt 0.371916 0.503837
vt 0.375000 0.627654
vt 0.625000 0.627654
vt 0.625000 0.750000
vt 0.375000 0.750000
vt 0.625000 1.000000
vt 0.375000 1.000000
vt 0.875000 0.000000
vt 0.875000 0.122346
vt 0.125000 0.000000
vt 0.125000 0.122346
vt 0.625000 0.132164
vt 0.375000 0.132164
vt 0.125000 0.132164
vt 0.375000 0.617836
vt 0.625000 0.617836
vt 0.875000 0.132164
vt 0.625000 0.209697
vt 0.375000 0.209697
vt 0.125000 0.209697
vt 0.375000 0.540303
vt 0.625000 0.540303
vt 0.875000 0.209697
vt 0.129010 0.250611
vt 0.870878 0.250500
vn 0.000000 0.047055 0.998892
vn 0.000000 0.047055 0.998892
vn 0.000000 0.047055 0.998892
vn 0.000000 0.047055 0.998892
vn 0.000000 1.000000 0.000000
vn 0.000000 1.000000 0.000000
vn 0.000000 1.000000 0.000000
vn 0.000000 1.000000 0.000000
vn 0.000000 0.047055 -0.998892
vn 0.000000 0.047055 -0.998892
vn 0.000000 0.047055 -0.998892
vn 0.000000 0.047055 -0.998892
vn 0.000000 -1.000000 0.000000
vn 0.000000 -1.000000 0.000000
vn 0.000000 -1.000000 0.000000
vn 0.000000 -1.000000 0.000000
vn 0.998892 0.047055 0.000000
vn 0.998892 0.047055 0.000000
vn 0.998892 0.047055 0.000000
vn 0.998892 0.047055 0.000000
vn -0.998892 0.047055 0.000000
vn -0.998892 0.047055 0.000000
vn -0.998892 0.047055 0.000000
vn -0.998892 0.047055 0.000000
vn 0.000000 0.276255 0.961084
vn 0.000000 0.276255 0.961084
vn 0.000000 0.276255 0.961084
vn 0.000000 0.276255 0.961084
vn -0.961084 0.276256 0.000000
vn -0.961084 0.276256 0.000000
vn -0.961084 0.276256 0.000000
vn -0.961084 0.276256 0.000000
vn 0.000000 0.276255 -0.961084
vn 0.000000 0.276255 -0.961084
vn 0.000000 0.276255 -0.961084
vn 0.000000 0.276255 -0.961084
vn 0.961084 0.276256 0.000000
vn 0.961084 0.276256 0.000000
vn 0.961084 0.276256 0.000000
vn 0.961084 0.276256 0.000000
vn 0.000000 -0.017949 0.999839
vn 0.000000 -0.017949 0.999839
vn 0.000000 -0.017949 0.999839
vn 0.000000 -0.017949 0.999839
vn -0.999839 -0.017949 0.000000
vn -0.999839 -0.017949 0.000000
vn -0.999839 -0.017949 0.000000
vn -0.999839 -0.017949 0.000000
vn 0.000000 -0.017949 -0.999839
vn 0.000000 -0.017949 -0.999839
vn 0.000000 -0.017949 -0.999839
vn 0.000000 -0.017949 -0.999839
vn 0.999839 -0.017949 0.000000
vn 0.999839 -0.017949 0.000000
vn 0.999839 -0.017949 0.000000
vn 0.999839 -0.017949 0.000000
vn 0.000000 0.106018 0.994364
vn 0.000000 0.106018 0.994364
vn 0.000000 0.106018 0.994364
vn 0.000000 0.106018 0.994364
vn -0.994364 0.106018 0.000000
vn -0.994364 0.106018 0.000000
vn -0.994364 0.106018 0.000000
vn -0.994364 0.106018 0.000000
vn 0.000000 0.106018 -0.994364
vn 0.000000 0.106018 -0.994364
vn 0.000000 0.106018 -0.994364
vn 0.000000 0.106018 -0.994364
vn 0.994364 0.106018 0.000000
vn 0.994364 0.106018 0.000000
vn 0.994364 0.106018 0.000000
vn 0.994364 0.106018 0.000000
f 9/15/25 10/16/26 17/17/27 18/18/28
f 11/19/29 12/20/30 14/21/31 13/22/32
f 19/23/33 20/24/34 16/25/35 15/26/36
f 15/26/37 16/25/38 10/27/39 9/28/40
f 10/16/41 16/29/42 20/30/43 17/17/44
f 15/31/45 9/15/46 18/18/47 19/32/48
f 18/18/49 17/17/50 21/33/51 22/34/52
f 19/32/53 18/18/54 22/34/55 23/35/56
f 23/36/57 24/37/58 20/24/59 19/23/60
f 17/17/61 20/30/62 24/38/63 21/33/64
f 22/34/65 21/33/66 25/39/67 26/40/68
f 23/35/69 22/34/70 26/40/71 27/41/72
f 27/42/73 28/43/74 24/37/75 23/36/76
f 21/33/77 24/38/78 28/44/79 25/39/80
f 26/40/81 25/39/82 12/20/83 11/19/84
f 27/41/85 26/40/86 11/19/87 13/45/88
f 13/22/89 14/21/90 28/43/91 27/42/92
f 25/39/93 28/44/94 14/46/95 12/20/96
