# This file uses centimeters as units for non-parametric coordinates.

v -0.450379 0.429663 0.303233
v 0.112979 0.429663 0.295599
v -0.422224 0.625178 0.264393
v 0.083624 0.611333 0.257539
v -0.430073 0.493958 -0.314851
v 0.075775 0.482534 -0.321706
v -0.459167 0.429663 -0.345273
v 0.104192 0.429663 -0.352906
vt 0.375000 0.000000
vt 0.625000 0.000000
vt 0.625000 0.250000
vt 0.375000 0.250000
vt 0.625000 0.500000
vt 0.375000 0.500000
vt 0.625000 0.750000
vt 0.375000 0.750000
vt 0.625000 1.000000
vt 0.375000 1.000000
vt 0.875000 0.000000
vt 0.875000 0.250000
vt 0.125000 0.000000
vt 0.125000 0.250000
vn 0.016243 0.238287 0.971059
vn 0.016243 0.238287 0.971059
vn 0.016243 0.238287 0.971059
vn 0.016243 0.238287 0.971059
vn 0.022352 0.985650 -0.167315
vn 0.022352 0.985650 -0.167315
vn 0.022352 0.985650 -0.167315
vn 0.022352 0.985650 -0.167315
vn -0.007018 0.465503 -0.885018
vn -0.007018 0.465503 -0.885018
vn -0.007018 0.465503 -0.885018
vn -0.007018 0.465503 -0.885018
vn 0.000000 -1.000000 0.000000
vn 0.000000 -1.000000 0.000000
vn 0.000000 -1.000000 0.000000
vn 0.000000 -1.000000 0.000000
vn 0.961428 0.272875 -0.034573
vn 0.961428 0.272875 -0.034573
vn 0.961428 0.272875 -0.034573
vn 0.961428 0.272875 -0.034573
vn -0.969917 0.243349 -0.006551
vn -0.969917 0.243349 -0.006551
vn -0.969917 0.243349 -0.006551
vn -0.969917 0.243349 -0.006551
f 1/1/1 2/2/2 4/3/3 3/4/4
f 3/4/5 4/3/6 6/5/7 5/6/8
f 5/6/9 6/5/10 8/7/11 7/8/12
f 7/8/13 8/7/14 2/9/15 1/10/16
f 2/2/17 8/11/18 6/12/19 4/3/20
f 7/13/21 1/1/22 3/4/23 5/14/24
v -0.499122 0.429663 0.496444
v 0.459354 0.429663 0.496444
v -0.450334 0.584054 0.500706
v 0.410297 0.570209 0.500706
v -0.450334 0.493958 -0.078592
v 0.410297 0.449633 -0.078592
v -0.499122 0.429663 -0.109405
v 0.459354 0.429663 -0.109405
vt 0.375000 0.000000
vt 0.625000 0.000000
vt 0.625000 0.250000
vt 0.375000 0.250000
vt 0.625000 0.500000
vt 0.375000 0.500000
vt 0.625000 0.750000
vt 0.375000 0.750000
vt 0.625000 1.000000
vt 0.375000 1.000000
vt 0.875000 0.000000
vt 0.875000 0.250000
vt 0.125000 0.000000
vt 0.125000 0.250000
vn 0.002344 0.307917 0.951410
vn 0.002344 0.307917 0.951410
vn 0.002344 0.307917 0.951410
vn 0.002344 0.307917 0.951410
vn 0.033484 0.990795 -0.131162
vn 0.033484 0.990795 -0.131162
vn 0.033484 0.990795 -0.131162
vn 0.033484 0.990795 -0.131162
vn 0.014383 0.590280 -0.807071
vn 0.014383 0.590280 -0.807071
vn 0.014383 0.590280 -0.807070
vn 0.014383 0.590280 -0.807071
vn 0.000000 -1.000000 0.000000
vn 0.000000 -1.000000 0.000000
vn 0.000000 -1.000000 0.000000
vn 0.000000 -1.000000 0.000000
vn 0.802726 0.594683 -0.044523
vn 0.802726 0.594683 -0.044523
vn 0.802726 0.594683 -0.044523
vn 0.802726 0.594683 -0.044523
vn -0.889727 0.455922 -0.022816
vn -0.889727 0.455922 -0.022816
vn -0.889727 0.455922 -0.022816
vn -0.889727 0.455922 -0.022816
f 9/15/25 10/16/26 12/17/27 11/18/28
f 11/18/29 12/17/30 14/19/31 13/20/32
f 13/20/33 14/19/34 16/21/35 15/22/36
f 15/22/37 16/21/38 10/23/39 9/24/40
f 10/16/41 16/25/42 14/26/43 12/17/44
f 15/27/45 9/15/46 11/18/47 13/28/48
v -0.547410 -0.500000 0.547410
v 0.547410 -0.500000 0.547410
v -0.500000 0.500000 0.500000
v 0.500000 0.500000 0.500000
v -0.500000 0.500000 -0.500000
v 0.500000 0.500000 -0.500000
v -0.547410 -0.500000 -0.547410
v 0.547410 -0.500000 -0.547410
v 0.532282 -0.178849 0.532282
v -0.532282 -0.178849 0.532282
v -0.532282 -0.178849 -0.532282
v 0.532282 -0.178849 -0.532282
v 0.521589 -0.141651 0.521589
v -0.521589 -0.141651 0.521589
v -0.521589 -0.141651 -0.521589
v 0.521589 -0.141651 -0.521589
v 0.528337 0.234222 0.528337
v -0.528337 0.234222 0.528337
v -0.528337 0.234222 -0.528337
v 0.528337 0.234222 -0.528337
vt 0.375000 0.000000
vt 0.625000 0.000000
vt 0.625000 0.122346
vt 0.375000 0.122346
vt 0.376754 0.252428
vt 0.622820 0.252004
vt 0.627448 0.504103
vt 0.371916 0.503837
vt 0.375000 0.627654
vt 0.625000 0.627654
vt 0.625000 0.750000
vt 0.375000 0.750000
vt 0.625000 1.000000
vt 0.375000 1.000000
vt 0.875000 0.000000
vt 0.875000 0.122346
vt 0.125000 0.000000
vt 0.125000 0.122346
vt 0.625000 0.132164
vt 0.375000 0.132164
vt 0.125000 0.132164
vt 0.375000 0.617836
vt 0.625000 0.617836
vt 0.875000 0.132164
vt 0.625000 0.209697
vt 0.375000 0.209697
vt 0.125000 0.209697
vt 0.375000 0.540303
vt 0.625000 0.540303
vt 0.875000 0.209697
vt 0.129010 0.250611
vt 0.870878 0.250500
vn 0.000000 0.047055 0.998892
vn 0.000000 0.047055 0.998892
vn 0.000000 0.047055 0.998892
vn 0.000000 0.047055 0.998892
vn 0.000000 1.000000 0.000000
vn 0.000000 1.000000 0.000000
vn 0.000000 1.000000 0.000000
vn 0.000000 1.000000 0.000000
vn 0.000000 0.047055 -0.998892
vn 0.000000 0.047055 -0.998892
vn 0.000000 0.047055 -0.998892
vn 0.000000 0.047055 -0.998892
vn 0.000000 -1.000000 0.000000
vn 0.000000 -1.000000 0.000000
vn 0.000000 -1.000000 0.000000
vn 0.000000 -1.000000 0.000000
vn 0.998892 0.047055 0.000000
vn 0.998892 0.047055 0.000000
vn 0.998892 0.047055 0.000000
vn 0.998892 0.047055 0.000000
vn -0.998892 0.047055 0.000000
vn -0.998892 0.047055 0.000000
vn -0.998892 0.047055 0.000000
vn -0.998892 0.047055 0.000000
vn 0.000000 0.276255 0.961084
vn 0.000000 0.276255 0.961084
vn 0.000000 0.276255 0.961084
vn 0.000000 0.276255 0.961084
vn -0.961084 0.276256 0.000000
vn -0.961084 0.276256 0.000000
vn -0.961084 0.276256 0.000000
vn -0.961084 0.276256 0.000000
vn 0.000000 0.276255 -0.961084
vn 0.000000 0.276255 -0.961084
vn 0.000000 0.276255 -0.961084
vn 0.000000 0.276255 -0.961084
vn 0.961084 0.276256 0.000000
vn 0.961084 0.276256 0.000000
vn 0.961084 0.276256 0.000000
vn 0.961084 0.276256 0.000000
vn 0.000000 -0.017949 0.999839
vn 0.000000 -0.017949 0.999839
vn 0.000000 -0.017949 0.999839
vn 0.000000 -0.017949 0.999839
vn -0.999839 -0.017949 0.000000
vn -0.999839 -0.017949 0.000000
vn -0.999839 -0.017949 0.000000
vn -0.999839 -0.017949 0.000000
vn 0.000000 -0.017949 -0.999839
vn 0.000000 -0.017949 -0.999839
vn 0.000000 -0.017949 -0.999839
vn 0.000000 -0.017949 -0.999839
vn 0.999839 -0.017949 0.000000
vn 0.999839 -0.017949 0.000000
vn 0.999839 -0.017949 0.000000
vn 0.999839 -0.017949 0.000000
vn 0.000000 0.106018 0.994364
vn 0.000000 0.106018 0.994364
vn 0.000000 0.106018 0.994364
vn 0.000000 0.106018 0.994364
vn -0.994364 0.106018 0.000000
vn -0.994364 0.106018 0.000000
vn -0.994364 0.106018 0.000000
vn -0.994364 0.106018 0.000000
vn 0.000000 0.106018 -0.994364
vn 0.000000 0.106018 -0.994364
vn 0.000000 0.106018 -0.994364
vn 0.000000 0.106018 -0.994364
vn 0.994364 0.106018 0.000000
vn 0.994364 0.106018 0.000000
vn 0.994364 0.106018 0.000000
vn 0.994364 0.106018 0.000000
f 17/29/49 18/30/50 25/31/51 26/32/52
f 19/33/53 20/34/54 22/35/55 21/36/56
f 27/37/57 28/38/58 24/39/59 23/40/60
f 23/40/61 24/39/62 18/41/63 17/42/64
f 18/30/65 24/43/66 28/44/67 25/31/68
f 23/45/69 17/29/70 26/32/71 27/46/72
f 26/32/73 25/31/74 29/47/75 30/48/76
f 27/46/77 26/32/78 30/48/79 31/49/80
f 31/50/81 32/51/82 28/38/83 27/37/84
f 25/31/85 28/44/86 32/52/87 29/47/88
f 30/48/89 29/47/90 33/53/91 34/54/92
f 31/49/93 30/48/94 34/54/95 35/55/96
f 35/56/97 36/57/98 32/51/99 31/50/100
f 29/47/101 32/52/102 36/58/103 33/53/104
f 34/54/105 33/53/106 20/34/107 19/33/108
f 35/55/109 34/54/110 19/33/111 21/59/112
f 21/36/113 22/35/114 36/57/115 35/56/116
f 33/53/117 36/58/118 22/60/119 20/34/120
