# This file uses centimeters as units for non-parametric coordinates.

mtllib roof.mtl
v -0.276627 0.111545 0.276627
v 0.276627 0.111545 0.276627
v -0.276627 0.664799 0.276627
v 0.276627 0.664799 0.276627
v -0.276627 0.664799 -0.276627
v 0.276627 0.664799 -0.276627
v -0.276627 0.111545 -0.276627
v 0.276627 0.111545 -0.276627
v 0.351216 0.036956 0.000000
v -0.351216 0.036956 0.000000
v 0.351216 0.388172 -0.351216
v -0.351216 0.388172 -0.351216
v 0.351216 0.739388 0.000000
v -0.351216 0.739388 0.000000
v 0.351216 0.388172 0.351216
v -0.351216 0.388172 0.351216
v 0.000000 0.036956 -0.351216
v 0.000000 0.739388 -0.351216
v 0.000000 0.739388 0.351216
v 0.000000 0.036956 0.351216
v -0.479083 0.388172 0.000000
v 0.479083 0.388172 0.000000
v 0.000000 -0.090911 0.000000
v 0.000000 0.388172 -0.479083
v 0.000000 0.867254 0.000000
v 0.000000 0.388172 0.479083
v -0.191396 0.388172 0.447176
v 0.191396 0.388172 0.447176
v 0.000000 0.579567 0.447176
v 0.000000 0.196776 0.447176
v -0.191396 0.835348 0.000000
v 0.191396 0.835348 0.000000
v 0.000000 0.835348 -0.191396
v 0.000000 0.835348 0.191396
v -0.191396 0.388172 -0.447176
v 0.191396 0.388172 -0.447176
v 0.000000 0.196776 -0.447176
v 0.000000 0.579567 -0.447176
v -0.191396 -0.059004 0.000000
v 0.191396 -0.059004 0.000000
v 0.000000 -0.059004 0.191396
v 0.000000 -0.059004 -0.191396
v 0.447176 0.388172 0.191396
v 0.447176 0.388172 -0.191396
v 0.447176 0.579567 0.000000
v 0.447176 0.196776 0.000000
v -0.447176 0.388172 -0.191396
v -0.447176 0.388172 0.191396
v -0.447176 0.579567 0.000000
v -0.447176 0.196776 0.000000
v 0.164134 0.061728 0.326444
v 0.164134 0.714616 0.326444
v 0.164134 0.714616 -0.326444
v 0.164134 0.061728 -0.326444
v -0.326444 0.552306 0.326444
v 0.326444 0.552306 0.326444
v -0.326444 0.714616 -0.164134
v 0.326444 0.714616 -0.164134
v -0.326444 0.224038 -0.326444
v 0.326444 0.224038 -0.326444
v -0.326444 0.061728 0.164134
v 0.326444 0.061728 0.164134
v 0.326444 0.061728 -0.164134
v -0.326444 0.061728 -0.164134
v 0.326444 0.552306 -0.326444
v -0.326444 0.552306 -0.326444
v 0.326444 0.714616 0.164134
v -0.326444 0.714616 0.164134
v 0.326444 0.224038 0.326444
v -0.326444 0.224038 0.326444
v -0.164134 0.061728 -0.326444
v -0.164134 0.714616 -0.326444
v -0.164134 0.714616 0.326444
v -0.164134 0.061728 0.326444
v -0.177926 0.566098 0.416625
v 0.177926 0.210246 0.416625
v 0.177926 0.566098 0.416625
v -0.177926 0.804796 -0.177926
v 0.177926 0.804796 0.177926
v 0.177926 0.804796 -0.177926
v -0.177926 0.210246 -0.416625
v 0.177926 0.566098 -0.416625
v 0.177926 0.210246 -0.416625
v -0.177926 -0.028453 0.177926
v 0.177926 -0.028453 -0.177926
v 0.177926 -0.028453 0.177926
v 0.416625 0.566098 0.177926
v 0.416625 0.210246 -0.177926
v 0.416625 0.566098 -0.177926
v -0.416625 0.566098 -0.177926
v -0.416625 0.210246 0.177926
v -0.416625 0.566098 0.177926
v -0.416625 0.210246 -0.177926
v 0.416625 0.210246 0.177926
v -0.177926 -0.028453 -0.177926
v -0.177926 0.566098 -0.416625
v -0.177926 0.804796 0.177926
v -0.177926 0.210246 0.416625
vt 0.375000 0.000000
vt 0.625000 0.000000
vt 0.375000 0.250000
vt 0.625000 0.250000
vt 0.375000 0.500000
vt 0.625000 0.500000
vt 0.375000 0.750000
vt 0.625000 0.750000
vt 0.375000 1.000000
vt 0.625000 1.000000
vt 0.875000 0.000000
vt 0.875000 0.250000
vt 0.125000 0.000000
vt 0.125000 0.250000
vt 0.625000 0.875000
vt 0.750000 0.000000
vt 0.250000 0.000000
vt 0.375000 0.875000
vt 0.625000 0.625000
vt 0.875000 0.125000
vt 0.125000 0.125000
vt 0.375000 0.625000
vt 0.625000 0.375000
vt 0.750000 0.250000
vt 0.250000 0.250000
vt 0.375000 0.375000
vt 0.625000 0.125000
vt 0.375000 0.125000
vt 0.500000 0.750000
vt 0.500000 0.500000
vt 0.500000 0.250000
vt 0.500000 0.000000
vt 0.500000 1.000000
vt 0.250000 0.125000
vt 0.750000 0.125000
vt 0.500000 0.875000
vt 0.500000 0.625000
vt 0.500000 0.375000
vt 0.500000 0.125000
vt 0.437500 0.125000
vt 0.562500 0.125000
vt 0.500000 0.187500
vt 0.500000 0.062500
vt 0.437500 0.375000
vt 0.562500 0.375000
vt 0.500000 0.437500
vt 0.500000 0.312500
vt 0.437500 0.625000
vt 0.562500 0.625000
vt 0.500000 0.687500
vt 0.500000 0.562500
vt 0.437500 0.875000
vt 0.562500 0.875000
vt 0.500000 0.937500
vt 0.500000 0.812500
vt 0.687500 0.125000
vt 0.812500 0.125000
vt 0.750000 0.187500
vt 0.750000 0.062500
vt 0.187500 0.125000
vt 0.312500 0.125000
vt 0.250000 0.187500
vt 0.250000 0.062500
vt 0.562500 0.000000
vt 0.562500 1.000000
vt 0.562500 0.250000
vt 0.562500 0.500000
vt 0.562500 0.750000
vt 0.375000 0.187500
vt 0.625000 0.187500
vt 0.187500 0.250000
vt 0.375000 0.437500
vt 0.625000 0.437500
vt 0.812500 0.250000
vt 0.125000 0.062500
vt 0.375000 0.687500
vt 0.625000 0.687500
vt 0.875000 0.062500
vt 0.312500 0.000000
vt 0.375000 0.937500
vt 0.625000 0.937500
vt 0.687500 0.000000
vt 0.625000 0.812500
vt 0.812500 0.000000
vt 0.187500 0.000000
vt 0.375000 0.812500
vt 0.625000 0.562500
vt 0.875000 0.187500
vt 0.125000 0.187500
vt 0.375000 0.562500
vt 0.625000 0.312500
vt 0.687500 0.250000
vt 0.312500 0.250000
vt 0.375000 0.312500
vt 0.625000 0.062500
vt 0.375000 0.062500
vt 0.437500 0.750000
vt 0.437500 0.500000
vt 0.437500 0.250000
vt 0.437500 0.000000
vt 0.437500 1.000000
vt 0.437500 0.187500
vt 0.562500 0.062500
vt 0.562500 0.187500
vt 0.437500 0.437500
vt 0.562500 0.312500
vt 0.562500 0.437500
vt 0.437500 0.687500
vt 0.562500 0.562500
vt 0.562500 0.687500
vt 0.437500 0.937500
vt 0.562500 0.812500
vt 0.562500 0.937500
vt 0.687500 0.187500
vt 0.812500 0.062500
vt 0.812500 0.187500
vt 0.187500 0.187500
vt 0.312500 0.062500
vt 0.312500 0.187500
vt 0.187500 0.062500
vt 0.687500 0.062500
vt 0.437500 0.812500
vt 0.437500 0.562500
vt 0.437500 0.312500
vt 0.437500 0.062500
vn -0.577350 -0.577350 0.577350
vn -0.317037 -0.670629 0.670630
vn -0.331207 -0.331207 0.883518
vn -0.670630 -0.317037 0.670630
vn -0.577350 0.577350 0.577350
vn -0.317037 0.670630 0.670630
vn -0.331207 0.883518 0.331207
vn -0.670629 0.670630 0.317037
vn -0.577350 0.577350 -0.577350
vn -0.317036 0.670630 -0.670630
vn -0.331207 0.331207 -0.883518
vn -0.670630 0.317037 -0.670630
vn -0.577350 -0.577350 -0.577350
vn -0.317036 -0.670630 -0.670630
vn -0.331207 -0.883518 -0.331207
vn -0.670630 -0.670630 -0.317037
vn 0.577350 -0.577350 0.577350
vn 0.670630 -0.670630 0.317037
vn 0.883518 -0.331207 0.331207
vn 0.670629 -0.317037 0.670630
vn -0.883518 -0.331207 -0.331207
vn -0.670630 -0.317037 -0.670630
vn -0.707107 0.707107 0.000000
vn -0.938499 0.345282 -0.000000
vn -0.883518 0.331207 0.331207
vn -0.707107 -0.000000 0.707107
vn -0.938499 -0.000000 0.345282
vn -0.883518 -0.331207 0.331207
vn -0.707107 0.000000 -0.707107
vn -0.938499 0.000000 -0.345282
vn -0.883518 0.331207 -0.331207
vn 0.707107 0.707107 -0.000000
vn 0.938499 0.345282 0.000000
vn 0.883518 0.331207 -0.331207
vn 0.670629 0.670630 -0.317037
vn 0.707107 -0.000000 -0.707107
vn 0.938499 -0.000000 -0.345282
vn 0.883518 -0.331207 -0.331207
vn 0.670630 -0.317037 -0.670630
vn 0.707107 0.000000 0.707107
vn 0.938499 0.000000 0.345282
vn 0.883518 0.331207 0.331207
vn 0.670630 0.317037 0.670630
vn -0.000000 -0.707107 0.707107
vn 0.000000 -0.938499 0.345282
vn 0.331207 -0.883518 0.331207
vn 0.317037 -0.670630 0.670630
vn 0.707107 -0.707107 -0.000000
vn 0.345282 -0.938499 -0.000000
vn 0.331207 -0.883518 -0.331207
vn 0.670630 -0.670630 -0.317037
vn -0.707107 -0.707107 0.000000
vn -0.345282 -0.938499 0.000000
vn -0.331207 -0.883518 0.331207
vn -0.670630 -0.670630 0.317037
vn 0.000000 -0.707107 -0.707107
vn 0.000000 -0.345282 -0.938499
vn 0.331207 -0.331207 -0.883518
vn 0.317037 -0.670630 -0.670630
vn 0.345282 0.000000 -0.938499
vn 0.331207 0.331207 -0.883518
vn 0.670630 0.317037 -0.670630
vn -0.345282 0.000000 -0.938499
vn -0.331207 -0.331207 -0.883518
vn -0.000000 0.707107 -0.707107
vn -0.000000 0.938499 -0.345282
vn 0.331207 0.883518 -0.331207
vn 0.317036 0.670630 -0.670630
vn 0.345282 0.938499 -0.000000
vn 0.331207 0.883518 0.331207
vn 0.670629 0.670630 0.317037
vn -0.345282 0.938499 0.000000
vn -0.331207 0.883518 -0.331207
vn -0.670629 0.670630 -0.317037
vn -0.000000 0.707107 0.707107
vn -0.000000 0.345282 0.938499
vn 0.331207 0.331207 0.883518
vn 0.317037 0.670629 0.670630
vn 0.345282 0.000000 0.938499
vn 0.331207 -0.331207 0.883518
vn -0.345282 0.000000 0.938499
vn -0.331207 0.331207 0.883518
vn -0.670630 0.317037 0.670630
vn 0.000000 0.000000 1.000000
vn 0.000000 -0.345282 0.938499
vn 0.577350 0.577350 0.577350
vn 0.000000 1.000000 0.000000
vn -0.000000 0.938499 0.345282
vn 0.577350 0.577350 -0.577350
vn 0.000000 0.000000 -1.000000
vn 0.000000 0.345282 -0.938499
vn 0.577350 -0.577350 -0.577350
vn 0.000000 -1.000000 0.000000
vn -0.000000 -0.938499 -0.345282
vn 1.000000 -0.000000 -0.000000
vn 0.938499 -0.345282 -0.000000
vn -1.000000 -0.000000 0.000000
vn -0.938499 -0.345282 0.000000
usemtl initialShadingGroup
f 1/1/1 74/100/2 98/125/3 70/96/4
f 3/3/5 73/99/6 97/124/7 68/94/8
f 5/5/9 72/98/10 96/123/11 66/90/12
f 7/7/13 71/97/14 95/122/15 64/86/16
f 2/2/17 62/82/18 94/121/19 69/95/20
f 7/13/13 64/85/16 93/120/21 59/75/22
f 14/25/23 49/62/24 92/119/25 68/93/8
f 16/28/26 48/61/27 91/118/28 70/96/4
f 12/21/29 47/60/30 90/117/31 66/89/12
f 13/24/32 45/58/33 89/116/34 58/74/35
f 11/20/36 44/57/37 88/115/38 60/78/39
f 15/27/40 43/56/41 87/114/42 56/70/43
f 20/33/44 41/54/45 86/113/46 51/65/47
f 9/15/48 40/53/49 85/112/50 63/83/51
f 10/18/52 39/52/53 84/111/54 61/80/55
f 17/29/56 37/50/57 83/110/58 54/68/59
f 11/19/36 36/49/60 82/109/61 65/87/62
f 12/22/29 35/48/63 81/108/64 59/76/22
f 18/30/65 33/46/66 80/107/67 53/67/68
f 13/23/32 32/45/69 79/106/70 67/91/71
f 14/26/23 31/44/72 78/105/73 57/72/74
f 19/31/75 29/42/76 77/104/77 52/66/78
f 15/27/40 28/41/79 76/103/80 69/95/20
f 16/28/26 27/40/81 75/102/82 55/69/83
f 73/99/6 75/102/82 29/42/76 19/31/75
f 29/42/76 75/102/82 27/40/81 26/39/84
f 55/69/83 75/102/82 73/99/6 3/3/5
f 51/64/47 76/103/80 30/43/85 20/32/44
f 30/43/85 76/103/80 28/41/79 26/39/84
f 69/95/20 76/103/80 51/64/47 2/2/17
f 56/70/43 77/104/77 28/41/79 15/27/40
f 28/41/79 77/104/77 29/42/76 26/39/84
f 52/66/78 77/104/77 56/70/43 4/4/86
f 72/98/10 78/105/73 33/46/66 18/30/65
f 33/46/66 78/105/73 31/44/72 25/38/87
f 57/72/74 78/105/73 72/98/10 5/5/9
f 52/66/78 79/106/70 34/47/88 19/31/75
f 34/47/88 79/106/70 32/45/69 25/38/87
f 67/91/71 79/106/70 52/66/78 4/4/86
f 58/73/35 80/107/67 32/45/69 13/23/32
f 32/45/69 80/107/67 33/46/66 25/38/87
f 53/67/68 80/107/67 58/73/35 6/6/89
f 71/97/14 81/108/64 37/50/57 17/29/56
f 37/50/57 81/108/64 35/48/63 24/37/90
f 59/76/22 81/108/64 71/97/14 7/7/13
f 53/67/68 82/109/61 38/51/91 18/30/65
f 38/51/91 82/109/61 36/49/60 24/37/90
f 65/87/62 82/109/61 53/67/68 6/6/89
f 60/77/39 83/110/58 36/49/60 11/19/36
f 36/49/60 83/110/58 37/50/57 24/37/90
f 54/68/59 83/110/58 60/77/39 8/8/92
f 74/101/2 84/111/54 41/54/45 20/33/44
f 41/54/45 84/111/54 39/52/53 23/36/93
f 61/80/55 84/111/54 74/101/2 1/9/1
f 54/68/59 85/112/50 42/55/94 17/29/56
f 42/55/94 85/112/50 40/53/49 23/36/93
f 63/83/51 85/112/50 54/68/59 8/8/92
f 62/81/18 86/113/46 40/53/49 9/15/48
f 40/53/49 86/113/46 41/54/45 23/36/93
f 51/65/47 86/113/46 62/81/18 2/10/17
f 67/92/71 87/114/42 45/58/33 13/24/32
f 45/58/33 87/114/42 43/56/41 22/35/95
f 56/70/43 87/114/42 67/92/71 4/4/86
f 63/84/51 88/115/38 46/59/96 9/16/48
f 46/59/96 88/115/38 44/57/37 22/35/95
f 60/78/39 88/115/38 63/84/51 8/11/92
f 65/88/62 89/116/34 44/57/37 11/20/36
f 44/57/37 89/116/34 45/58/33 22/35/95
f 58/74/35 89/116/34 65/88/62 6/12/89
f 57/71/74 90/117/31 49/62/24 14/25/23
f 49/62/24 90/117/31 47/60/30 21/34/97
f 66/89/12 90/117/31 57/71/74 5/14/9
f 61/79/55 91/118/28 50/63/98 10/17/52
f 50/63/98 91/118/28 48/61/27 21/34/97
f 70/96/4 91/118/28 61/79/55 1/1/1
f 55/69/83 92/119/25 48/61/27 16/28/26
f 48/61/27 92/119/25 49/62/24 21/34/97
f 68/93/8 92/119/25 55/69/83 3/3/5
f 47/60/30 93/120/21 50/63/98 21/34/97
f 50/63/98 93/120/21 64/85/16 10/17/52
f 59/75/22 93/120/21 47/60/30 12/21/29
f 43/56/41 94/121/19 46/59/96 22/35/95
f 46/59/96 94/121/19 62/82/18 9/16/48
f 69/95/20 94/121/19 43/56/41 15/27/40
f 39/52/53 95/122/15 42/55/94 23/36/93
f 42/55/94 95/122/15 71/97/14 17/29/56
f 64/86/16 95/122/15 39/52/53 10/18/52
f 35/48/63 96/123/11 38/51/91 24/37/90
f 38/51/91 96/123/11 72/98/10 18/30/65
f 66/90/12 96/123/11 35/48/63 12/22/29
f 31/44/72 97/124/7 34/47/88 25/38/87
f 34/47/88 97/124/7 73/99/6 19/31/75
f 68/94/8 97/124/7 31/44/72 14/26/23
f 27/40/81 98/125/3 30/43/85 26/39/84
f 30/43/85 98/125/3 74/100/2 20/32/44
f 70/96/4 98/125/3 27/40/81 16/28/26
v -0.500000 -0.500000 0.500000
v 0.500000 -0.500000 0.500000
v -0.500000 0.500000 0.500000
v 0.500000 0.500000 0.500000
v -0.500000 0.500000 -0.500000
v 0.500000 0.500000 -0.500000
v -0.500000 -0.500000 -0.500000
v 0.500000 -0.500000 -0.500000
v -0.500000 0.191634 0.500000
v -0.500000 0.191634 -0.500000
v 0.500000 0.191634 -0.500000
v 0.500000 0.191634 0.500000
v -0.500000 0.125965 0.500000
v -0.500000 0.125965 -0.500000
v 0.500000 0.125965 -0.500000
v 0.500000 0.125965 0.500000
v -0.453365 0.125965 0.453365
v -0.453365 0.125965 -0.453365
v -0.453365 0.191634 0.453365
v -0.453365 0.191634 -0.453365
v 0.453365 0.191634 -0.453365
v 0.453365 0.125965 -0.453365
v 0.453365 0.125965 0.453365
v 0.453365 0.191634 0.453365
vt 0.375000 0.000000
vt 0.625000 0.000000
vt 0.375000 0.250000
vt 0.625000 0.250000
vt 0.375000 0.500000
vt 0.625000 0.500000
vt 0.375000 0.750000
vt 0.625000 0.750000
vt 0.375000 1.000000
vt 0.625000 1.000000
vt 0.875000 0.000000
vt 0.875000 0.250000
vt 0.125000 0.000000
vt 0.125000 0.250000
vt 0.375000 0.166667
vt 0.125000 0.166667
vt 0.375000 0.583333
vt 0.625000 0.583333
vt 0.875000 0.166667
vt 0.625000 0.166667
vt 0.375000 0.083333
vt 0.125000 0.083333
vt 0.375000 0.666667
vt 0.625000 0.666667
vt 0.875000 0.083333
vt 0.625000 0.083333
vt 0.125000 0.083333
vt 0.375000 0.083333
vt 0.375000 0.166667
vt 0.125000 0.166667
vt 0.375000 0.583333
vt 0.625000 0.583333
vt 0.625000 0.666667
vt 0.375000 0.666667
vt 0.625000 0.083333
vt 0.875000 0.083333
vt 0.875000 0.166667
vt 0.625000 0.166667
vn 0.000000 0.000000 1.000000
vn 0.000000 0.000000 1.000000
vn 0.000000 0.000000 1.000000
vn 0.000000 0.000000 1.000000
vn 0.000000 1.000000 0.000000
vn 0.000000 1.000000 0.000000
vn 0.000000 1.000000 0.000000
vn 0.000000 1.000000 0.000000
vn 0.000000 0.000000 -1.000000
vn 0.000000 0.000000 -1.000000
vn 0.000000 0.000000 -1.000000
vn 0.000000 0.000000 -1.000000
vn 0.000000 -1.000000 0.000000
vn 0.000000 -1.000000 0.000000
vn 0.000000 -1.000000 0.000000
vn 0.000000 -1.000000 0.000000
vn 1.000000 0.000000 0.000000
vn 1.000000 0.000000 0.000000
vn 1.000000 0.000000 0.000000
vn 1.000000 0.000000 0.000000
vn -1.000000 0.000000 0.000000
vn -1.000000 0.000000 0.000000
vn -1.000000 0.000000 0.000000
vn -1.000000 0.000000 0.000000
vn -1.000000 0.000000 0.000000
vn -1.000000 0.000000 0.000000
vn -1.000000 0.000000 0.000000
vn -1.000000 0.000000 0.000000
vn 0.000000 0.000000 -1.000000
vn 0.000000 0.000000 -1.000000
vn 0.000000 0.000000 -1.000000
vn 0.000000 0.000000 -1.000000
vn 1.000000 0.000000 0.000000
vn 1.000000 0.000000 0.000000
vn 1.000000 0.000000 0.000000
vn 1.000000 0.000000 0.000000
vn 0.000000 0.000000 1.000000
vn 0.000000 0.000000 1.000000
vn 0.000000 0.000000 1.000000
vn 0.000000 0.000000 1.000000
vn -1.000000 0.000000 0.000000
vn -1.000000 0.000000 0.000000
vn -1.000000 0.000000 0.000000
vn -1.000000 0.000000 0.000000
vn 0.000000 0.000000 -1.000000
vn 0.000000 0.000000 -1.000000
vn 0.000000 0.000000 -1.000000
vn 0.000000 0.000000 -1.000000
vn 1.000000 0.000000 0.000000
vn 1.000000 0.000000 0.000000
vn 1.000000 0.000000 0.000000
vn 1.000000 0.000000 0.000000
vn 0.000000 0.000000 1.000000
vn 0.000000 0.000000 1.000000
vn 0.000000 0.000000 1.000000
vn 0.000000 0.000000 1.000000
vn 0.000000 1.000000 0.000000
vn 0.000000 1.000000 0.000000
vn 0.000000 1.000000 0.000000
vn 0.000000 1.000000 0.000000
vn 0.000000 -1.000000 0.000000
vn 0.000000 -1.000000 0.000000
vn 0.000000 -1.000000 0.000000
vn 0.000000 -1.000000 0.000000
vn 0.000000 -1.000000 0.000000
vn 0.000000 -1.000000 0.000000
vn 0.000000 -1.000000 0.000000
vn 0.000000 -1.000000 0.000000
vn 0.000000 1.000000 -0.000000
vn 0.000000 1.000000 -0.000000
vn 0.000000 1.000000 -0.000000
vn 0.000000 1.000000 -0.000000
vn 0.000000 1.000000 0.000000
vn 0.000000 1.000000 0.000000
vn 0.000000 1.000000 0.000000
vn 0.000000 1.000000 0.000000
vn 0.000000 -1.000000 0.000000
vn 0.000000 -1.000000 0.000000
vn 0.000000 -1.000000 0.000000
vn 0.000000 -1.000000 0.000000
vn 0.000000 1.000000 0.000000
vn 0.000000 1.000000 0.000000
vn 0.000000 1.000000 0.000000
vn 0.000000 1.000000 0.000000
vn 0.000000 -1.000000 -0.000000
vn 0.000000 -1.000000 -0.000000
vn 0.000000 -1.000000 -0.000000
vn 0.000000 -1.000000 -0.000000
f 99/126/99 100/127/100 114/151/101 111/146/102
f 101/128/103 102/129/104 104/131/105 103/130/106
f 112/148/107 113/149/108 106/133/109 105/132/110
f 105/132/111 106/133/112 100/135/113 99/134/114
f 100/127/115 106/136/116 113/150/117 114/151/118
f 105/138/119 99/126/120 111/146/121 112/147/122
f 108/141/123 107/140/124 101/128/125 103/139/126
f 103/130/127 104/131/128 109/143/129 108/142/130
f 110/145/131 109/144/132 104/137/133 102/129/134
f 107/140/135 110/145/136 102/129/137 101/128/138
f 116/152/139 115/153/140 117/154/141 118/155/142
f 118/156/143 119/157/144 120/158/145 116/159/146
f 121/160/147 120/161/148 119/162/149 122/163/150
f 115/153/151 121/160/152 122/163/153 117/154/154
f 112/147/155 111/146/156 115/153/157 116/152/158
f 107/140/159 108/141/160 118/155/161 117/154/162
f 108/142/163 109/143/164 119/157/165 118/156/166
f 113/149/167 112/148/168 116/159/169 120/158/170
f 114/151/171 113/150/172 120/161/173 121/160/174
f 109/144/175 110/145/176 122/163/177 119/162/178
f 111/146/179 114/151/180 121/160/181 115/153/182
f 110/145/183 107/140/184 117/154/185 122/163/186
