# This file uses centimeters as units for non-parametric coordinates.

v -0.547410 -0.500000 0.547410
v 0.714035 -0.500000 0.501817
v -0.500000 0.500000 0.500000
v 0.491253 0.113325 0.528337
v -0.500000 0.500000 -0.500000
v 0.497557 0.113325 -0.528337
v -0.547410 -0.500000 -0.547410
v 0.683710 -0.500000 -0.399943
v 0.698907 -0.178849 0.494039
v -0.532282 -0.178849 0.532282
v -0.532282 -0.178849 -0.532282
v 0.668581 -0.178849 -0.391319
v -0.521589 -0.141651 0.521589
v -0.521589 -0.141651 -0.521589
v 0.666672 0.113325 0.494154
v -0.528337 0.113325 0.528337
v -0.528337 0.113325 -0.528337
v 0.637485 0.113325 -0.380870
v -0.457104 0.507097 0.457104
v 0.408100 0.507097 0.460028
v 0.408100 0.507097 -0.458728
v -0.457104 0.507097 -0.457104
v 0.498885 -0.140411 0.528448
v 0.498804 -0.178849 0.536332
v 0.495401 -0.500000 0.547410
v 0.532915 -0.500000 -0.547410
v 0.520694 -0.178849 -0.538786
v 0.520812 -0.142180 -0.530613
v 0.654244 -0.142864 -0.384132
v 0.685146 -0.140643 0.493430
v 0.458988 0.485396 -0.507529
v 0.456546 0.488333 0.492219
v 0.718096 0.113325 0.011716
v 0.735150 -0.141729 0.011825
v 0.749192 -0.178849 0.008623
v 0.764321 -0.500000 0.012139
v 0.530034 -0.500000 0.012139
v 0.497054 0.113325 -0.047081
v 0.637485 0.113325 -0.047081
v 0.654507 -0.141853 -0.047338
v 0.668581 -0.178849 -0.050974
v 0.683710 -0.500000 -0.048781
v 0.527184 -0.500000 -0.048781
vt 0.375000 0.000000
vt 0.625000 0.000000
vt 0.375000 0.250000
vt 0.612104 0.213952
vt 0.375000 0.500000
vt 0.610947 0.530907
vt 0.375000 0.750000
vt 0.625000 0.750000
vt 0.375000 1.000000
vt 0.625000 1.000000
vt 0.875000 0.000000
vt 0.869608 0.226462
vt 0.125000 0.000000
vt 0.125000 0.250000
vt 0.629457 0.124846
vt 0.375000 0.122346
vt 0.125000 0.122346
vt 0.375000 0.627654
vt 0.629027 0.626083
vt 0.875594 0.122395
vt 0.375000 0.132164
vt 0.125000 0.132164
vt 0.375000 0.617836
vt 0.625000 0.209697
vt 0.375000 0.209697
vt 0.125000 0.209697
vt 0.375000 0.540303
vt 0.625000 0.540303
vt 0.875000 0.209697
vt 0.375000 0.250000
vt 0.625000 0.250000
vt 0.625000 0.500000
vt 0.375000 0.500000
vt 0.595973 0.125809
vt 0.596262 0.124520
vt 0.589339 0.000000
vt 0.589339 1.000000
vt 0.578636 0.750000
vt 0.589723 0.626326
vt 0.589385 0.624796
vt 0.628330 0.611249
vt 0.875491 0.137492
vt 0.628769 0.137947
vt 0.624225 0.501703
vt 0.624385 0.248282
vt 0.747228 0.209697
vt 0.749394 0.137725
vt 0.749796 0.123648
vt 0.625000 0.877772
vt 0.747228 0.000000
vt 0.584106 0.877772
vt 0.611523 0.384873
vt 0.749535 0.222179
vt 0.761139 0.209697
vt 0.763123 0.137699
vt 0.763492 0.123512
vt 0.625000 0.863861
vt 0.761139 0.000000
vt 0.583511 0.863861
vn 0.205299 0.032465 0.978161
vn 0.205299 0.032465 0.978161
vn 0.205299 0.032465 0.978161
vn 0.205299 0.032465 0.978161
vn 0.000000 1.000000 0.000000
vn 0.000000 1.000000 0.000000
vn 0.000000 1.000000 0.000000
vn 0.000000 1.000000 0.000000
vn 0.701785 0.048967 -0.710703
vn 0.701785 0.048967 -0.710703
vn 0.701785 0.048967 -0.710704
vn 0.701785 0.048967 -0.710704
vn 0.000000 -1.000000 0.000000
vn 0.000000 -1.000000 0.000000
vn 0.000000 -1.000000 0.000000
vn 0.000000 -1.000000 0.000000
vn 0.998892 0.047055 0.000000
vn 0.998892 0.047055 0.000000
vn 0.998892 0.047055 0.000000
vn 0.998892 0.047055 0.000000
vn -0.998892 0.047055 0.000000
vn -0.998892 0.047055 0.000000
vn -0.998892 0.047055 0.000000
vn -0.998892 0.047055 0.000000
vn 0.194298 0.142221 0.970578
vn 0.194298 0.142221 0.970578
vn 0.194298 0.142221 0.970578
vn 0.194298 0.142221 0.970578
vn -0.961084 0.276256 0.000000
vn -0.961084 0.276256 0.000000
vn -0.961084 0.276256 0.000000
vn -0.961084 0.276256 0.000000
vn 0.694641 0.276355 -0.664156
vn 0.694641 0.276355 -0.664156
vn 0.694641 0.276355 -0.664155
vn 0.694641 0.276355 -0.664156
vn -0.999650 -0.026454 0.000000
vn -0.999650 -0.026454 0.000000
vn -0.999650 -0.026454 0.000000
vn -0.999650 -0.026454 0.000000
vn 0.931831 0.362892 -0.000903
vn 0.931831 0.362892 -0.000903
vn 0.931831 0.362892 -0.000903
vn 0.931831 0.362892 -0.000903
vn -0.997326 0.073088 0.000000
vn -0.997326 0.073088 0.000000
vn -0.997326 0.073088 0.000000
vn -0.997326 0.073088 0.000000
vn -0.000000 1.000000 0.000000
vn -0.000000 1.000000 0.000000
vn -0.000000 1.000000 0.000000
vn -0.000000 1.000000 0.000000
vn 0.004421 0.084356 0.996426
vn 0.004421 0.084356 0.996426
vn 0.004421 0.084356 0.996426
vn 0.004421 0.084356 0.996426
vn 0.994888 0.100906 0.004092
vn 0.994888 0.100906 0.004092
vn 0.994888 0.100906 0.004092
vn 0.994888 0.100906 0.004092
vn 0.994888 0.100906 0.004092
vn -0.163234 0.986587 0.000000
vn -0.163234 0.986587 0.000000
vn -0.163234 0.986587 0.000000
vn -0.163234 0.986587 0.000000
vn -0.003354 -0.013139 0.999908
vn -0.003354 -0.013139 0.999908
vn -0.003354 -0.013139 0.999908
vn -0.003354 -0.013139 0.999908
vn -0.005307 0.239212 0.970953
vn -0.005307 0.239212 0.970953
vn -0.005307 0.239212 0.970953
vn -0.005307 0.239212 0.970953
vn -0.001951 0.040824 0.999164
vn -0.001951 0.040824 0.999164
vn -0.001951 0.040824 0.999164
vn -0.001951 0.040824 0.999164
vn 0.000000 -1.000000 0.000000
vn 0.000000 -1.000000 0.000000
vn 0.000000 -1.000000 0.000000
vn 0.000000 -1.000000 0.000000
vn 0.000000 -1.000000 0.000000
vn 0.000000 -1.000000 0.000000
vn -0.003047 0.036969 -0.999312
vn -0.003047 0.036969 -0.999312
vn -0.003047 0.036969 -0.999312
vn -0.003047 0.036969 -0.999312
vn -0.007115 0.248421 -0.968626
vn -0.007115 0.248421 -0.968626
vn -0.007115 0.248421 -0.968626
vn -0.007115 0.248421 -0.968626
vn -0.004365 -0.009015 -0.999950
vn -0.004365 -0.009015 -0.999950
vn -0.004365 -0.009015 -0.999950
vn -0.004365 -0.009015 -0.999950
vn -0.003310 0.064591 -0.997906
vn -0.003310 0.064591 -0.997906
vn -0.003310 0.064591 -0.997906
vn -0.003310 0.064591 -0.997906
vn 0.730834 0.064506 -0.679500
vn 0.730834 0.064506 -0.679500
vn 0.730834 0.064506 -0.679500
vn 0.730834 0.064506 -0.679500
vn 0.997825 0.065918 -0.000490
vn 0.997825 0.065918 -0.000490
vn 0.997825 0.065918 -0.000490
vn 0.997825 0.065918 -0.000490
vn 0.187925 0.008479 0.982147
vn 0.187925 0.008479 0.982147
vn 0.187925 0.008479 0.982147
vn 0.187925 0.008479 0.982147
vn 0.006138 0.954190 -0.299137
vn 0.006138 0.954190 -0.299137
vn 0.006138 0.954190 -0.299137
vn 0.006138 0.954190 -0.299137
vn 0.377136 0.926158 -0.000938
vn 0.377136 0.926158 -0.000938
vn 0.377135 0.926158 -0.000938
vn 0.377136 0.926158 -0.000938
vn 0.006923 0.945626 0.325182
vn 0.006923 0.945626 0.325182
vn 0.006923 0.945626 0.325182
vn 0.006923 0.945626 0.325182
vn 0.992140 0.069121 0.104307
vn 0.992140 0.069121 0.104307
vn 0.992140 0.069121 0.104307
vn 0.992140 0.069121 0.104307
vn 0.934825 0.341728 0.096566
vn 0.934825 0.341728 0.096566
vn 0.934825 0.341728 0.096566
vn 0.934825 0.341728 0.096566
vn 0.993547 0.048605 0.102474
vn 0.993548 0.048605 0.102474
vn 0.993547 0.048605 0.102474
vn 0.993548 0.048605 0.102474
vn 0.000000 -1.000000 0.000000
vn 0.000000 -1.000000 0.000000
vn 0.000000 -1.000000 0.000000
vn 0.000000 -1.000000 0.000000
vn -0.000000 1.000000 -0.000000
vn -0.000000 1.000000 -0.000000
vn -0.000000 1.000000 -0.000000
vn -0.000000 1.000000 -0.000000
vn 0.589928 0.039630 -0.806483
vn 0.589928 0.039630 -0.806483
vn 0.589928 0.039630 -0.806483
vn 0.589928 0.039630 -0.806483
vn 0.567985 0.286653 -0.771507
vn 0.567985 0.286653 -0.771507
vn 0.567985 0.286653 -0.771507
vn 0.567985 0.286653 -0.771507
vn 0.598596 0.021080 -0.800774
vn 0.598596 0.021080 -0.800774
vn 0.598596 0.021080 -0.800774
vn 0.598596 0.021080 -0.800774
vn 0.000000 -1.000000 0.000000
vn 0.000000 -1.000000 0.000000
vn 0.000000 -1.000000 0.000000
vn 0.000000 -1.000000 0.000000
vn 0.000000 1.000000 0.000000
vn 0.000000 1.000000 0.000000
vn 0.000000 1.000000 0.000000
f 24/35/1 25/36/2 2/2/3 9/15/4
f 20/31/5 21/32/6 22/33/7 19/30/8
f 26/38/9 27/39/10 12/19/11 8/8/12
f 43/59/13 26/38/14 8/8/15 42/57/16
f 42/58/17 8/11/18 12/20/19 41/56/20
f 10/16/21 11/17/22 7/13/23 1/1/24
f 23/34/25 24/35/26 9/15/27 30/43/28
f 13/21/29 14/22/30 11/17/31 10/16/32
f 12/19/33 27/39/34 28/40/35 29/41/36
f 16/25/37 17/26/38 14/22/39 13/21/40
f 41/56/41 12/20/42 29/42/43 40/55/44
f 3/3/45 5/14/46 17/26/47 16/25/48
f 38/53/49 39/54/50 18/29/51 6/12/52
f 4/4/53 32/45/54 3/3/55 16/25/56
f 38/52/57 6/6/58 31/44/59 32/45/60 4/4/61
f 19/30/62 22/33/63 5/5/64 3/3/65
f 13/21/66 23/34/67 4/4/68 16/25/69
f 10/16/70 24/35/71 23/34/72 13/21/73
f 1/1/74 25/36/75 24/35/76 10/16/77
f 7/7/78 26/38/79 43/59/80 37/51/81 25/37/82 1/9/83
f 11/18/84 27/39/85 26/38/86 7/7/87
f 14/23/88 28/40/89 27/39/90 11/18/91
f 17/27/92 6/6/93 28/40/94 14/23/95
f 6/6/96 17/27/97 5/5/98 31/44/99
f 29/41/100 28/40/101 6/6/102 18/28/103
f 40/55/104 29/42/105 18/29/106 39/54/107
f 23/34/108 30/43/109 15/24/110 4/4/111
f 31/44/112 5/5/113 22/33/114 21/32/115
f 31/44/116 21/32/117 20/31/118 32/45/119
f 3/3/120 32/45/121 20/31/122 19/30/123
f 30/43/124 34/47/125 33/46/126 15/24/127
f 9/15/128 35/48/129 34/47/130 30/43/131
f 2/2/132 36/50/133 35/48/134 9/15/135
f 25/37/136 37/51/137 36/49/138 2/10/139
f 15/24/140 33/46/141 38/53/142 4/4/143
f 34/47/144 40/55/145 39/54/146 33/46/147
f 35/48/148 41/56/149 40/55/150 34/47/151
f 36/50/152 42/58/153 41/56/154 35/48/155
f 37/51/156 43/59/157 42/57/158 36/49/159
f 38/53/160 33/46/161 39/54/162
