# This file uses centimeters as units for non-parametric coordinates.

v -0.547410 -0.500000 0.547410
v 0.547410 -0.500000 0.547410
v -0.500000 0.500000 0.500000
v 0.500000 0.500000 0.500000
v -0.500000 0.500000 -0.500000
v 0.500000 0.500000 -0.500000
v -0.547410 -0.500000 -0.547410
v 0.547410 -0.500000 -0.547410
v 0.532282 -0.178849 0.532282
v -0.532282 -0.178849 0.532282
v -0.532282 -0.178849 -0.532282
v 0.532282 -0.178849 -0.532282
v 0.521589 -0.141651 0.521590
v -0.521589 -0.141651 0.521590
v -0.521589 -0.141651 -0.521590
v 0.521589 -0.141651 -0.521590
v 0.528337 0.229514 0.528337
v -0.528337 0.234222 0.528337
v -0.528337 0.234222 -0.528337
v 0.524684 0.232021 -0.528337
v -0.457104 0.507097 0.457103
v 0.457104 0.507097 0.457103
v 0.457104 0.507097 -0.457104
v -0.457104 0.507097 -0.457104
v 0.672617 -0.500000 -0.453414
v 0.676657 -0.500094 0.503145
v 0.635858 -0.065407 -0.429975
v 0.635858 -0.065407 0.477191
v 0.522855 -0.071139 0.522855
v 0.522910 -0.068088 -0.522910
v 0.524721 0.032768 0.524721
v 0.621168 0.037272 0.479291
v 0.621220 0.039293 -0.432145
v 0.524867 0.040899 -0.524867
v 0.640886 -0.146492 -0.427016
v 0.641516 -0.144776 0.472904
v 0.654081 -0.183409 0.485855
v 0.653008 -0.183757 -0.438660
vt 0.375000 0.000000
vt 0.625000 0.000000
vt 0.625000 0.122346
vt 0.375000 0.122346
vt 0.375000 0.250000
vt 0.625000 0.250000
vt 0.625000 0.500000
vt 0.375000 0.500000
vt 0.375000 0.627654
vt 0.625000 0.627654
vt 0.625000 0.750000
vt 0.375000 0.750000
vt 0.625000 1.000000
vt 0.375000 1.000000
vt 0.125000 0.000000
vt 0.125000 0.122346
vt 0.625000 0.132164
vt 0.375000 0.132164
vt 0.125000 0.132164
vt 0.375000 0.617836
vt 0.625000 0.617836
vt 0.625000 0.146709
vt 0.625000 0.168142
vt 0.623393 0.200153
vt 0.375000 0.209697
vt 0.125000 0.209697
vt 0.375000 0.540303
vt 0.605695 0.558462
vt 0.625000 0.580180
vt 0.625000 0.602662
vt 0.621565 0.248074
vt 0.375000 0.250000
vt 0.125000 0.250000
vt 0.375000 0.500000
vt 0.629959 0.503700
vt 0.877837 0.214662
vt 0.884178 0.250231
vt 0.875000 0.000000
vt 0.875000 0.000000
vt 0.625000 0.000000
vt 0.625000 0.108032
vt 0.625000 0.096286
vt 0.875000 0.107505
vt 0.875000 0.096173
vt 0.875000 0.169820
vt 0.875000 0.132164
vt 0.875000 0.122346
vt 0.625000 0.132164
vt 0.625000 0.158497
vt 0.875000 0.132164
vt 0.875000 0.159015
vt 0.875000 0.147338
vn 0.000000 0.047055 0.998892
vn 0.000000 0.047055 0.998892
vn 0.000000 0.047055 0.998892
vn 0.000000 0.047055 0.998892
vn 0.000000 1.000000 0.000000
vn 0.000000 1.000000 0.000000
vn 0.000000 1.000000 0.000000
vn 0.000000 1.000000 0.000000
vn 0.000000 0.047055 -0.998892
vn 0.000000 0.047055 -0.998892
vn 0.000000 0.047055 -0.998892
vn 0.000000 0.047055 -0.998892
vn 0.000000 -1.000000 0.000000
vn 0.000000 -1.000000 0.000000
vn 0.000000 -1.000000 0.000000
vn 0.000000 -1.000000 0.000000
vn -0.998892 0.047055 0.000000
vn -0.998892 0.047055 0.000000
vn -0.998892 0.047055 0.000000
vn -0.998892 0.047055 0.000000
vn 0.000000 0.276254 0.961085
vn 0.000000 0.276254 0.961085
vn 0.000000 0.276254 0.961085
vn 0.000000 0.276254 0.961085
vn -0.961084 0.276255 0.000000
vn -0.961084 0.276255 0.000000
vn -0.961084 0.276255 0.000000
vn -0.961084 0.276255 0.000000
vn 0.000000 0.276254 -0.961085
vn 0.000000 0.276254 -0.961085
vn 0.000000 0.276254 -0.961085
vn 0.000000 0.276254 -0.961085
vn -0.000022 -0.018062 0.999837
vn -0.000022 -0.018062 0.999837
vn -0.000022 -0.018062 0.999837
vn -0.000022 -0.018062 0.999837
vn -0.000022 -0.018062 0.999837
vn -0.000022 -0.018062 0.999837
vn -0.999839 -0.017949 0.000000
vn -0.999839 -0.017949 0.000000
vn -0.999839 -0.017949 0.000000
vn -0.999839 -0.017949 0.000000
vn -0.000010 -0.018002 -0.999838
vn -0.000010 -0.018002 -0.999838
vn -0.000010 -0.018002 -0.999838
vn -0.000010 -0.018002 -0.999838
vn -0.000010 -0.018002 -0.999838
vn -0.000010 -0.018002 -0.999838
vn 0.000241 0.105098 0.994462
vn 0.000241 0.105098 0.994462
vn 0.000241 0.105098 0.994462
vn 0.000241 0.105098 0.994462
vn -0.994364 0.106018 0.000000
vn -0.994364 0.106018 0.000000
vn -0.994364 0.106018 0.000000
vn -0.994364 0.106018 0.000000
vn 0.000113 0.105585 -0.994410
vn 0.000113 0.105585 -0.994410
vn 0.000113 0.105585 -0.994410
vn 0.000113 0.105585 -0.994410
vn 0.995186 0.097993 -0.001648
vn 0.995186 0.097993 -0.001648
vn 0.995186 0.097993 -0.001648
vn 0.995186 0.097993 -0.001648
vn 0.000000 0.986587 0.163234
vn 0.000000 0.986587 0.163234
vn 0.000000 0.986587 0.163234
vn 0.000000 0.986587 0.163234
vn 0.163234 0.986587 0.000000
vn 0.163234 0.986587 0.000000
vn 0.163234 0.986587 0.000000
vn 0.163234 0.986587 0.000000
vn 0.000000 0.986587 -0.163235
vn 0.000000 0.986587 -0.163235
vn 0.000000 0.986587 -0.163235
vn 0.000000 0.986587 -0.163235
vn -0.163234 0.986587 0.000000
vn -0.163234 0.986587 0.000000
vn -0.163234 0.986587 0.000000
vn -0.163234 0.986587 0.000000
vn -0.000362 -1.000000 -0.000045
vn -0.000362 -1.000000 -0.000045
vn -0.000362 -1.000000 -0.000045
vn -0.000362 -1.000000 -0.000045
vn 0.349733 0.374950 0.858545
vn 0.349733 0.374950 0.858545
vn 0.349733 0.374950 0.858545
vn 0.349733 0.374950 0.858545
vn 0.950964 0.309298 -0.001238
vn 0.950964 0.309298 -0.001238
vn 0.950964 0.309298 -0.001238
vn 0.950964 0.309298 -0.001238
vn 0.999959 -0.008852 -0.001710
vn 0.999959 -0.008852 -0.001710
vn 0.999959 -0.008852 -0.001710
vn 0.999959 -0.008852 -0.001710
vn 0.577501 0.391777 -0.716243
vn 0.577501 0.391777 -0.716243
vn 0.577501 0.391777 -0.716243
vn 0.577501 0.391777 -0.716243
vn 0.398528 0.007134 0.917128
vn 0.398528 0.007134 0.917128
vn 0.398528 0.007134 0.917128
vn 0.398528 0.007134 0.917128
vn 0.990147 0.140031 0.000184
vn 0.990147 0.140031 0.000184
vn 0.990147 0.140031 0.000184
vn 0.990147 0.140031 0.000184
vn 0.663309 0.024921 -0.747931
vn 0.663309 0.024921 -0.747931
vn 0.663309 0.024921 -0.747931
vn 0.663309 0.024921 -0.747931
vn -0.016296 0.999854 0.005175
vn -0.016296 0.999854 0.005175
vn -0.016296 0.999854 0.005175
vn -0.016296 0.999854 0.005175
vn 0.628138 -0.006473 -0.778075
vn 0.628138 -0.006473 -0.778075
vn 0.628138 -0.006473 -0.778075
vn 0.628138 -0.006473 -0.778075
vn 0.997789 0.066455 -0.000411
vn 0.997789 0.066455 -0.000411
vn 0.997789 0.066455 -0.000411
vn 0.997789 0.066455 -0.000411
vn 0.375550 -0.023318 0.926509
vn 0.375550 -0.023318 0.926509
vn 0.375550 -0.023318 0.926509
vn 0.375550 -0.023318 0.926509
vn 0.340096 0.067777 0.937945
vn 0.340096 0.067777 0.937945
vn 0.340096 0.067777 0.937945
vn 0.340096 0.067777 0.937945
vn 0.997783 0.066493 -0.002721
vn 0.997783 0.066493 -0.002721
vn 0.997783 0.066493 -0.002721
vn 0.997783 0.066493 -0.002721
vn 0.605927 0.070174 -0.792419
vn 0.605927 0.070174 -0.792419
vn 0.605927 0.070174 -0.792419
vn 0.605927 0.070174 -0.792419
f 1/1/1 2/2/2 9/3/3 10/4/4
f 21/5/5 22/6/6 23/7/7 24/8/8
f 11/9/9 12/10/10 8/11/11 7/12/12
f 7/12/13 8/11/14 2/13/15 1/14/16
f 7/15/17 1/1/18 10/4/19 11/16/20
f 10/4/21 9/3/22 13/17/23 14/18/24
f 11/16/25 10/4/26 14/18/27 15/19/28
f 15/20/29 16/21/30 12/10/31 11/9/32
f 14/18/33 13/17/34 29/22/35 31/23/36 17/24/37 18/25/38
f 15/19/39 14/18/40 18/25/41 19/26/42
f 19/27/43 20/28/44 34/29/45 30/30/46 16/21/47 15/20/48
f 18/25/49 17/24/50 4/31/51 3/32/52
f 19/26/53 18/25/54 3/32/55 5/33/56
f 5/34/57 6/35/58 20/28/59 19/27/60
f 17/24/61 20/36/62 6/37/63 4/31/64
f 3/32/65 4/31/66 22/6/67 21/5/68
f 4/31/69 6/35/70 23/7/71 22/6/72
f 6/35/73 5/34/74 24/8/75 23/7/76
f 5/34/77 3/32/78 21/5/79 24/8/80
f 2/2/81 8/38/82 25/39/83 26/40/84
f 36/41/85 13/17/86 9/3/87 37/42/88
f 35/43/89 36/41/90 37/42/91 38/44/92
f 17/24/93 31/23/94 34/45/95 20/36/96
f 16/46/97 35/43/98 38/44/99 12/47/100
f 28/48/101 32/49/102 31/23/103 29/22/104
f 28/48/105 27/50/106 33/51/107 32/49/108
f 27/50/109 30/52/110 34/45/111 33/51/112
f 34/45/113 31/23/114 32/49/115 33/51/116
f 27/50/117 35/43/118 16/46/119 30/52/120
f 28/48/121 36/41/122 35/43/123 27/50/124
f 28/48/125 29/22/126 13/17/127 36/41/128
f 37/42/129 9/3/130 2/2/131 26/40/132
f 38/44/133 37/42/134 26/40/135 25/39/136
f 12/47/137 38/44/138 25/39/139 8/38/140
