# This file uses centimeters as units for non-parametric coordinates.

v -0.547410 -0.500000 0.547410
v 0.702893 -0.500000 0.547410
v -0.500000 0.500000 0.500000
v 0.654877 0.500000 0.500000
v -0.500000 0.500000 -0.500000
v 0.654877 0.500000 -0.500000
v -0.547410 -0.500000 -0.547410
v 0.702893 -0.500000 -0.547410
v 0.685235 -0.174217 0.532282
v -0.532282 -0.178849 0.532282
v -0.532282 -0.178849 -0.532282
v 0.685235 -0.174217 -0.532282
v 0.674606 -0.141368 0.521590
v -0.521589 -0.141651 0.521590
v -0.521589 -0.141651 -0.521590
v 0.674606 -0.141368 -0.521590
v 0.683581 0.235877 0.528337
v -0.528337 0.234222 0.528337
v -0.528337 0.234222 -0.528337
v 0.683581 0.235877 -0.528337
v -0.457104 0.507097 0.457103
v 0.563123 0.507097 0.457103
v 0.563123 0.507097 -0.457104
v -0.457104 0.507097 -0.457104
vt 0.375000 0.000000
vt 0.633450 -0.000087
vt 0.375000 0.250000
vt 0.637865 0.248541
vt 0.375000 0.500000
vt 0.660568 0.504685
vt 0.375000 0.750000
vt 0.656512 0.749974
vt 0.375000 1.000000
vt 0.655514 0.999989
vt 0.875256 -0.000211
vt 0.874953 0.249867
vt 0.125000 0.000000
vt 0.125000 0.250000
vt 0.635014 0.122188
vt 0.375000 0.122346
vt 0.125000 0.122346
vt 0.375000 0.627654
vt 0.655338 0.626660
vt 0.875081 0.121712
vt 0.634959 0.131316
vt 0.375000 0.132164
vt 0.125000 0.132164
vt 0.375000 0.617836
vt 0.654887 0.618064
vt 0.874553 0.131276
vt 0.635591 0.207733
vt 0.375000 0.209697
vt 0.125000 0.209697
vt 0.375000 0.540303
vt 0.659613 0.541368
vt 0.875968 0.207360
vt 0.375000 0.250000
vt 0.625000 0.250000
vt 0.625000 0.500000
vt 0.375000 0.500000
vn -0.000087 0.046718 0.998908
vn -0.000087 0.046718 0.998908
vn -0.000087 0.046718 0.998908
vn -0.000087 0.046718 0.998908
vn 0.000000 1.000000 0.000000
vn 0.000000 1.000000 0.000000
vn 0.000000 1.000000 0.000000
vn 0.000000 1.000000 0.000000
vn -0.000087 0.046718 -0.998908
vn -0.000087 0.046718 -0.998908
vn -0.000087 0.046718 -0.998908
vn -0.000087 0.046718 -0.998908
vn 0.000000 -1.000000 0.000000
vn 0.000000 -1.000000 0.000000
vn 0.000000 -1.000000 0.000000
vn 0.000000 -1.000000 0.000000
vn 0.998534 0.054122 0.000000
vn 0.998534 0.054122 0.000000
vn 0.998534 0.054122 0.000000
vn 0.998534 0.054122 0.000000
vn -0.998892 0.047055 0.000000
vn -0.998892 0.047055 0.000000
vn -0.998892 0.047055 0.000000
vn -0.998892 0.047055 0.000000
vn -0.000595 0.291986 0.956422
vn -0.000595 0.291986 0.956422
vn -0.000595 0.291986 0.956422
vn -0.000595 0.291986 0.956422
vn -0.961084 0.276255 0.000000
vn -0.961084 0.276255 0.000000
vn -0.961084 0.276255 0.000000
vn -0.961084 0.276255 0.000000
vn -0.000595 0.291986 -0.956422
vn -0.000595 0.291986 -0.956422
vn -0.000595 0.291986 -0.956422
vn -0.000595 0.291986 -0.956422
vn 0.951432 0.307860 0.000000
vn 0.951432 0.307860 0.000000
vn 0.951432 0.307860 0.000000
vn 0.951432 0.307860 0.000000
vn 0.000014 -0.017916 0.999840
vn 0.000014 -0.017916 0.999840
vn 0.000014 -0.017916 0.999840
vn 0.000014 -0.017916 0.999840
vn -0.999839 -0.017949 0.000000
vn -0.999839 -0.017949 0.000000
vn -0.999839 -0.017949 0.000000
vn -0.999839 -0.017949 0.000000
vn 0.000014 -0.017916 -0.999840
vn 0.000014 -0.017916 -0.999840
vn 0.000014 -0.017916 -0.999840
vn 0.000014 -0.017916 -0.999840
vn 0.999717 -0.023783 0.000000
vn 0.999717 -0.023783 0.000000
vn 0.999717 -0.023783 0.000000
vn 0.999717 -0.023783 0.000000
vn -0.000074 0.106346 0.994329
vn -0.000074 0.106346 0.994329
vn -0.000074 0.106346 0.994329
vn -0.000074 0.106346 0.994329
vn -0.994364 0.106018 0.000000
vn -0.994364 0.106018 0.000000
vn -0.994364 0.106018 0.000000
vn -0.994364 0.106018 0.000000
vn -0.000074 0.106346 -0.994329
vn -0.000074 0.106346 -0.994329
vn -0.000074 0.106346 -0.994329
vn -0.000074 0.106346 -0.994329
vn 0.994147 0.108038 0.000000
vn 0.994147 0.108038 0.000000
vn 0.994147 0.108038 0.000000
vn 0.994147 0.108038 0.000000
vn 0.000000 0.986588 0.163233
vn 0.000000 0.986588 0.163233
vn 0.000000 0.986588 0.163233
vn 0.000000 0.986588 0.163233
vn 0.077121 0.997022 0.000000
vn 0.077121 0.997022 0.000000
vn 0.077121 0.997022 0.000000
vn 0.077121 0.997022 0.000000
vn 0.000000 0.986588 -0.163233
vn 0.000000 0.986588 -0.163233
vn 0.000000 0.986588 -0.163233
vn 0.000000 0.986588 -0.163233
vn -0.163234 0.986587 0.000000
vn -0.163234 0.986587 0.000000
vn -0.163234 0.986587 0.000000
vn -0.163234 0.986587 0.000000
f 1/1/1 2/2/2 9/15/3 10/16/4
f 21/33/5 22/34/6 23/35/7 24/36/8
f 11/18/9 12/19/10 8/8/11 7/7/12
f 7/7/13 8/8/14 2/10/15 1/9/16
f 2/2/17 8/11/18 12/20/19 9/15/20
f 7/13/21 1/1/22 10/16/23 11/17/24
f 10/16/25 9/15/26 13/21/27 14/22/28
f 11/17/29 10/16/30 14/22/31 15/23/32
f 15/24/33 16/25/34 12/19/35 11/18/36
f 9/15/37 12/20/38 16/26/39 13/21/40
f 14/22/41 13/21/42 17/27/43 18/28/44
f 15/23/45 14/22/46 18/28/47 19/29/48
f 19/30/49 20/31/50 16/25/51 15/24/52
f 13/21/53 16/26/54 20/32/55 17/27/56
f 18/28/57 17/27/58 4/4/59 3/3/60
f 19/29/61 18/28/62 3/3/63 5/14/64
f 5/5/65 6/6/66 20/31/67 19/30/68
f 17/27/69 20/32/70 6/12/71 4/4/72
f 3/3/73 4/4/74 22/34/75 21/33/76
f 4/4/77 6/6/78 23/35/79 22/34/80
f 6/6/81 5/5/82 24/36/83 23/35/84
f 5/5/85 3/3/86 21/33/87 24/36/88
